<svg width="40" height="40" viewBox="0 0 40 40" fill="none" xmlns="http://www.w3.org/2000/svg">
<g clip-path="url(#clip0_4949_7277)">
<path opacity="0.2" d="M15 10V30C15 30.3315 14.8683 30.6495 14.6339 30.8839C14.3995 31.1183 14.0815 31.25 13.75 31.25H10C9.66848 31.25 9.35054 31.1183 9.11612 30.8839C8.8817 30.6495 8.75 30.3315 8.75 30V10C8.75 9.66848 8.8817 9.35054 9.11612 9.11612C9.35054 8.8817 9.66848 8.75 10 8.75H13.75C14.0815 8.75 14.3995 8.8817 14.6339 9.11612C14.8683 9.35054 15 9.66848 15 10ZM30 8.75H26.25C25.9185 8.75 25.6005 8.8817 25.3661 9.11612C25.1317 9.35054 25 9.66848 25 10V30C25 30.3315 25.1317 30.6495 25.3661 30.8839C25.6005 31.1183 25.9185 31.25 26.25 31.25H30C30.3315 31.25 30.6495 31.1183 30.8839 30.8839C31.1183 30.6495 31.25 30.3315 31.25 30V10C31.25 9.66848 31.1183 9.35054 30.8839 9.11612C30.6495 8.8817 30.3315 8.75 30 8.75Z" fill="#007660"/>
<path d="M38.75 18.75H37.5V13.75C37.5 13.087 37.2366 12.4511 36.7678 11.9822C36.2989 11.5134 35.663 11.25 35 11.25H32.5V10C32.5 9.33696 32.2366 8.70107 31.7678 8.23223C31.2989 7.76339 30.663 7.5 30 7.5H26.25C25.587 7.5 24.9511 7.76339 24.4822 8.23223C24.0134 8.70107 23.75 9.33696 23.75 10V18.75H16.25V10C16.25 9.33696 15.9866 8.70107 15.5178 8.23223C15.0489 7.76339 14.413 7.5 13.75 7.5H10C9.33696 7.5 8.70107 7.76339 8.23223 8.23223C7.76339 8.70107 7.5 9.33696 7.5 10V11.25H5C4.33696 11.25 3.70107 11.5134 3.23223 11.9822C2.76339 12.4511 2.5 13.087 2.5 13.75V18.75H1.25C0.918479 18.75 0.600537 18.8817 0.366117 19.1161C0.131696 19.3505 0 19.6685 0 20C0 20.3315 0.131696 20.6495 0.366117 20.8839C0.600537 21.1183 0.918479 21.25 1.25 21.25H2.5V26.25C2.5 26.913 2.76339 27.5489 3.23223 28.0178C3.70107 28.4866 4.33696 28.75 5 28.75H7.5V30C7.5 30.663 7.76339 31.2989 8.23223 31.7678C8.70107 32.2366 9.33696 32.5 10 32.5H13.75C14.413 32.5 15.0489 32.2366 15.5178 31.7678C15.9866 31.2989 16.25 30.663 16.25 30V21.25H23.75V30C23.75 30.663 24.0134 31.2989 24.4822 31.7678C24.9511 32.2366 25.587 32.5 26.25 32.5H30C30.663 32.5 31.2989 32.2366 31.7678 31.7678C32.2366 31.2989 32.5 30.663 32.5 30V28.75H35C35.663 28.75 36.2989 28.4866 36.7678 28.0178C37.2366 27.5489 37.5 26.913 37.5 26.25V21.25H38.75C39.0815 21.25 39.3995 21.1183 39.6339 20.8839C39.8683 20.6495 40 20.3315 40 20C40 19.6685 39.8683 19.3505 39.6339 19.1161C39.3995 18.8817 39.0815 18.75 38.75 18.75ZM5 26.25V13.75H7.5V26.25H5ZM13.75 30H10V10H13.75V30ZM30 30H26.25V10H30V27.4734C30 27.4828 30 27.4906 30 27.5C30 27.5094 30 27.5187 30 27.5266V30ZM35 26.25H32.5V13.75H35V26.25Z" fill="#007660"/>
</g>
<defs>
<clipPath id="clip0_4949_7277">
<rect width="40" height="40" fill="white"/>
</clipPath>
</defs>
</svg>
