<svg width="40" height="40" viewBox="0 0 40 40" fill="none" xmlns="http://www.w3.org/2000/svg">
<path opacity="0.2" d="M30.625 18.125L16.6156 32.1344C16.3814 32.3684 16.0639 32.4998 15.7328 32.5H7.5V24.2672C7.50015 23.9361 7.63165 23.6186 7.86563 23.3844L21.875 9.375L30.625 18.125Z" fill="#007660"/>
<path d="M37.1351 10.3656L29.6351 2.86559C29.5189 2.74945 29.3811 2.65732 29.2293 2.59447C29.0776 2.53162 28.9149 2.49927 28.7507 2.49927C28.5865 2.49927 28.4238 2.53162 28.2721 2.59447C28.1203 2.65732 27.9825 2.74945 27.8663 2.86559C27.7502 2.98173 27.6581 3.1196 27.5952 3.27134C27.5324 3.42308 27.5 3.58572 27.5 3.74996C27.5 3.91421 27.5324 4.07684 27.5952 4.22858C27.6581 4.38032 27.7502 4.5182 27.8663 4.63434L30.7335 7.49996L26.2507 11.9828L20.8851 6.61559C20.6505 6.38104 20.3324 6.24927 20.0007 6.24927C19.669 6.24927 19.3509 6.38104 19.1163 6.61559C18.8818 6.85014 18.75 7.16826 18.75 7.49996C18.75 7.83167 18.8818 8.14979 19.1163 8.38434L20.1085 9.37496L6.98351 22.5C6.75035 22.7313 6.5655 23.0066 6.43969 23.31C6.31389 23.6134 6.24965 23.9387 6.25069 24.2672V31.9828L2.86632 35.3656C2.75018 35.4817 2.65806 35.6196 2.5952 35.7713C2.53235 35.9231 2.5 36.0857 2.5 36.25C2.5 36.4142 2.53235 36.5768 2.5952 36.7286C2.65806 36.8803 2.75018 37.0182 2.86632 37.1343C3.10087 37.3689 3.41899 37.5007 3.7507 37.5007C3.91494 37.5007 4.07757 37.4683 4.22932 37.4055C4.38106 37.3426 4.51893 37.2505 4.63507 37.1343L8.01788 33.75H15.7335C16.0619 33.751 16.3873 33.6868 16.6907 33.561C16.994 33.4352 17.2694 33.2503 17.5007 33.0172L30.6257 19.8921L31.6163 20.8843C31.7325 21.0005 31.8703 21.0926 32.0221 21.1555C32.1738 21.2183 32.3365 21.2507 32.5007 21.2507C32.6649 21.2507 32.8276 21.2183 32.9793 21.1555C33.1311 21.0926 33.2689 21.0005 33.3851 20.8843C33.5012 20.7682 33.5933 20.6303 33.6562 20.4786C33.719 20.3268 33.7514 20.1642 33.7514 20C33.7514 19.8357 33.719 19.6731 33.6562 19.5213C33.5933 19.3696 33.5012 19.2317 33.3851 19.1156L28.0179 13.75L32.5007 9.26715L35.3663 12.1343C35.6009 12.3689 35.919 12.5007 36.2507 12.5007C36.5824 12.5007 36.9005 12.3689 37.1351 12.1343C37.3696 11.8998 37.5014 11.5817 37.5014 11.25C37.5014 10.9183 37.3696 10.6001 37.1351 10.3656ZM15.7335 31.25H8.7507V24.2672L11.5632 21.4546L14.7413 24.6343C14.8575 24.7505 14.9953 24.8426 15.1471 24.9055C15.2988 24.9683 15.4615 25.0007 15.6257 25.0007C15.7899 25.0007 15.9526 24.9683 16.1043 24.9055C16.2561 24.8426 16.3939 24.7505 16.5101 24.6343C16.6262 24.5182 16.7183 24.3803 16.7812 24.2286C16.844 24.0768 16.8764 23.9142 16.8764 23.75C16.8764 23.5857 16.844 23.4231 16.7812 23.2713C16.7183 23.1196 16.6262 22.9817 16.5101 22.8656L13.3304 19.6875L15.3132 17.7046L18.4913 20.8843C18.7259 21.1189 19.044 21.2507 19.3757 21.2507C19.7074 21.2507 20.0255 21.1189 20.2601 20.8843C20.4946 20.6498 20.6264 20.3317 20.6264 20C20.6264 19.6683 20.4946 19.3501 20.2601 19.1156L17.0804 15.9375L21.8757 11.1421L28.8585 18.125L15.7335 31.25Z" fill="#007660"/>
</svg>
