<svg width="33" height="32" viewBox="0 0 33 32" fill="none" xmlns="http://www.w3.org/2000/svg">
<path opacity="0.2" d="M26.334 4H8.33398C8.06877 4 7.81441 4.10536 7.62688 4.29289C7.43934 4.48043 7.33398 4.73478 7.33398 5V27C7.33398 27.2652 7.43934 27.5196 7.62688 27.7071C7.81441 27.8946 8.06877 28 8.33398 28H26.334C26.5992 28 26.8536 27.8946 27.0411 27.7071C27.2286 27.5196 27.334 27.2652 27.334 27V5C27.334 4.73478 27.2286 4.48043 27.0411 4.29289C26.8536 4.10536 26.5992 4 26.334 4ZM17.334 18C16.5429 18 15.7695 17.7654 15.1117 17.3259C14.4539 16.8864 13.9412 16.2616 13.6385 15.5307C13.3357 14.7998 13.2565 13.9956 13.4108 13.2196C13.5652 12.4437 13.9461 11.731 14.5056 11.1716C15.065 10.6122 15.7777 10.2312 16.5536 10.0769C17.3295 9.92252 18.1338 10.0017 18.8647 10.3045C19.5956 10.6072 20.2203 11.1199 20.6599 11.7777C21.0994 12.4355 21.334 13.2089 21.334 14C21.334 15.0609 20.9126 16.0783 20.1624 16.8284C19.4123 17.5786 18.3949 18 17.334 18Z" fill="#171717"/>
<path d="M10.7327 21.8C10.8378 21.879 10.9575 21.9365 11.0848 21.9692C11.2121 22.0019 11.3447 22.0091 11.4748 21.9906C11.605 21.972 11.7302 21.9279 11.8433 21.8609C11.9564 21.7939 12.0552 21.7052 12.134 21.6C12.7394 20.7927 13.5245 20.1375 14.4271 19.6862C15.3297 19.2349 16.3249 19 17.334 19C18.3431 19 19.3383 19.2349 20.2409 19.6862C21.1434 20.1375 21.9285 20.7927 22.534 21.6C22.6128 21.7051 22.7115 21.7936 22.8245 21.8605C22.9375 21.9274 23.0626 21.9714 23.1926 21.99C23.3226 22.0085 23.455 22.0013 23.5822 21.9687C23.7094 21.9361 23.8289 21.8788 23.934 21.8C24.039 21.7212 24.1276 21.6225 24.1945 21.5095C24.2614 21.3965 24.3054 21.2714 24.3239 21.1414C24.3425 21.0114 24.3353 20.879 24.3027 20.7518C24.2701 20.6246 24.2128 20.5051 24.134 20.4C23.2485 19.2128 22.0677 18.2781 20.709 17.6887C21.4536 17.0089 21.9753 16.1199 22.2056 15.1382C22.4359 14.1566 22.364 13.1283 21.9994 12.1883C21.6348 11.2482 20.9946 10.4404 20.1626 9.87072C19.3307 9.30106 18.346 8.99623 17.3377 8.99623C16.3295 8.99623 15.3448 9.30106 14.5128 9.87072C13.6809 10.4404 13.0406 11.2482 12.6761 12.1883C12.3115 13.1283 12.2396 14.1566 12.4699 15.1382C12.7002 16.1199 13.2219 17.0089 13.9665 17.6887C12.605 18.277 11.4215 19.2118 10.534 20.4C10.3747 20.612 10.3062 20.8786 10.3435 21.1412C10.3807 21.4037 10.5208 21.6407 10.7327 21.8ZM14.334 14C14.334 13.4067 14.5099 12.8266 14.8396 12.3333C15.1692 11.8399 15.6378 11.4554 16.1859 11.2284C16.7341 11.0013 17.3373 10.9419 17.9193 11.0576C18.5012 11.1734 19.0357 11.4591 19.4553 11.8787C19.8749 12.2982 20.1606 12.8328 20.2763 13.4147C20.3921 13.9967 20.3327 14.5999 20.1056 15.1481C19.8786 15.6962 19.494 16.1648 19.0007 16.4944C18.5073 16.8241 17.9273 17 17.334 17C16.5383 17 15.7753 16.6839 15.2127 16.1213C14.6501 15.5587 14.334 14.7956 14.334 14ZM26.334 3H8.33398C7.80355 3 7.29484 3.21071 6.91977 3.58579C6.5447 3.96086 6.33398 4.46957 6.33398 5V8H4.33398C4.06877 8 3.81441 8.10536 3.62688 8.29289C3.43934 8.48043 3.33398 8.73478 3.33398 9C3.33398 9.26522 3.43934 9.51957 3.62688 9.70711C3.81441 9.89464 4.06877 10 4.33398 10H6.33398V15H4.33398C4.06877 15 3.81441 15.1054 3.62688 15.2929C3.43934 15.4804 3.33398 15.7348 3.33398 16C3.33398 16.2652 3.43934 16.5196 3.62688 16.7071C3.81441 16.8946 4.06877 17 4.33398 17H6.33398V22H4.33398C4.06877 22 3.81441 22.1054 3.62688 22.2929C3.43934 22.4804 3.33398 22.7348 3.33398 23C3.33398 23.2652 3.43934 23.5196 3.62688 23.7071C3.81441 23.8946 4.06877 24 4.33398 24H6.33398V27C6.33398 27.5304 6.5447 28.0391 6.91977 28.4142C7.29484 28.7893 7.80355 29 8.33398 29H26.334C26.8644 29 27.3731 28.7893 27.7482 28.4142C28.1233 28.0391 28.334 27.5304 28.334 27V5C28.334 4.46957 28.1233 3.96086 27.7482 3.58579C27.3731 3.21071 26.8644 3 26.334 3ZM26.334 27H8.33398V5H26.334V27Z" fill="#171717"/>
</svg>
