<svg width="40" height="40" viewBox="0 0 40 40" fill="none" xmlns="http://www.w3.org/2000/svg">
<path opacity="0.2" d="M35.1685 16.0062C34.4839 16.7886 33.5431 17.3016 32.5147 17.4533C31.4862 17.605 30.4374 17.3856 29.556 16.8343C29.3157 16.6793 29.0296 16.6113 28.7452 16.6417C28.4609 16.6721 28.1955 16.7991 27.9935 17.0015L16.9966 27.9984C16.7942 28.2004 16.6672 28.4657 16.6368 28.7501C16.6064 29.0344 16.6744 29.3206 16.8295 29.5609C17.2032 30.1598 17.4265 30.8403 17.4802 31.5443C17.5339 32.2483 17.4164 32.9547 17.1378 33.6035C16.8592 34.2522 16.4278 34.8238 15.8803 35.2696C15.3329 35.7154 14.6857 36.0221 13.994 36.1634C13.3023 36.3048 12.5866 36.2767 11.9082 36.0815C11.2297 35.8863 10.6085 35.5298 10.0977 35.0424C9.58693 34.5551 9.20166 33.9513 8.97482 33.2828C8.74799 32.6142 8.68631 31.9007 8.79508 31.2031C8.0975 31.3118 7.38397 31.2502 6.71541 31.0233C6.04684 30.7965 5.4431 30.4112 4.95574 29.9004C4.46838 29.3896 4.11187 28.7685 3.91666 28.09C3.72145 27.4115 3.69333 26.6959 3.83471 26.0042C3.97609 25.3125 4.28277 24.6653 4.72856 24.1178C5.17434 23.5704 5.74599 23.1389 6.3947 22.8603C7.04341 22.5817 7.74991 22.4643 8.45386 22.518C9.15781 22.5717 9.83832 22.7949 10.4373 23.1687C10.6775 23.3238 10.9637 23.3918 11.2481 23.3613C11.5324 23.3309 11.7977 23.2039 11.9998 23.0015L22.9966 12.0046C23.199 11.8026 23.326 11.5373 23.3565 11.253C23.3869 10.9686 23.3189 10.6824 23.1638 10.4421C22.7901 9.8432 22.5668 9.1627 22.5131 8.45874C22.4594 7.75479 22.5769 7.04829 22.8555 6.39959C23.134 5.75088 23.5655 5.17922 24.1129 4.73344C24.6604 4.28765 25.3076 3.98098 25.9993 3.8396C26.691 3.69822 27.4067 3.72633 28.0851 3.92154C28.7636 4.11675 29.3848 4.47326 29.8956 4.96062C30.4063 5.44798 30.7916 6.05172 31.0185 6.72029C31.2453 7.38886 31.307 8.10239 31.1982 8.79996C32.0864 8.66001 32.9962 8.79713 33.8036 9.19265C34.6111 9.58818 35.2772 10.2229 35.7111 11.0104C36.145 11.798 36.3257 12.7001 36.2286 13.594C36.1315 14.4879 35.7614 15.3302 35.1685 16.0062Z" fill="#007660"/>
<path d="M36.1973 9.51402C35.264 8.39018 33.9283 7.67579 32.4754 7.5234C32.3832 6.68404 32.1032 5.87621 31.6561 5.15984C31.2091 4.44347 30.6065 3.83695 29.893 3.38525C29.1796 2.93355 28.3736 2.64828 27.5348 2.55059C26.6961 2.4529 25.8461 2.5453 25.048 2.82093C24.2498 3.09656 23.5239 3.54836 22.9242 4.14281C22.3245 4.73725 21.8663 5.4591 21.5836 6.25479C21.3009 7.05049 21.201 7.89961 21.2913 8.73919C21.3816 9.57876 21.6597 10.3872 22.1051 11.1046C22.1058 11.1088 22.1058 11.113 22.1051 11.1171L11.1192 22.1109C11.1192 22.1109 11.1192 22.1109 11.1035 22.1109C10.3861 21.6655 9.57766 21.3874 8.73809 21.2971C7.89851 21.2068 7.04939 21.3067 6.25369 21.5894C5.458 21.8721 4.73616 22.3303 4.14171 22.93C3.54726 23.5297 3.09547 24.2556 2.81983 25.0537C2.5442 25.8519 2.4518 26.7019 2.54949 27.5406C2.64718 28.3794 2.93246 29.1854 3.38415 29.8988C3.83585 30.6123 4.44238 31.2149 5.15874 31.6619C5.87511 32.1089 6.68294 32.389 7.5223 32.4812C7.61453 33.3206 7.89456 34.1284 8.34161 34.8448C8.78866 35.5611 9.39125 36.1677 10.1047 36.6194C10.8181 37.0711 11.6241 37.3563 12.4629 37.454C13.3016 37.5517 14.1516 37.4593 14.9498 37.1837C15.7479 36.908 16.4738 36.4562 17.0735 35.8618C17.6732 35.2673 18.1314 34.5455 18.4141 33.7498C18.6968 32.9541 18.7967 32.105 18.7064 31.2654C18.6161 30.4258 18.338 29.6174 17.8926 28.9C17.8923 28.8958 17.8923 28.8916 17.8926 28.8875L28.8848 17.8937C28.8848 17.8937 28.8848 17.8937 28.9004 17.8937C30.0356 18.6087 31.3889 18.8944 32.7162 18.6994C34.0435 18.5043 35.2574 17.8412 36.1388 16.8299C37.0202 15.8185 37.5112 14.5254 37.5231 13.1839C37.5349 11.8424 37.0669 10.5408 36.2035 9.51402H36.1973ZM34.2332 15.1812C33.7444 15.7409 33.0722 16.1081 32.3371 16.2169C31.6021 16.3257 30.8523 16.169 30.2223 15.775C29.7427 15.4706 29.1737 15.3387 28.6091 15.4009C28.0445 15.4631 27.5179 15.7157 27.116 16.1171L16.116 27.1171C15.7156 27.5198 15.4641 28.0467 15.4031 28.6113C15.342 29.1759 15.475 29.7445 15.7801 30.2234C16.0462 30.6514 16.2048 31.1373 16.2424 31.6398C16.2801 32.1423 16.1956 32.6465 15.9963 33.1093C15.797 33.5721 15.4887 33.9799 15.0978 34.2978C14.7068 34.6157 14.2448 34.8344 13.751 34.9352C13.2573 35.0359 12.7465 35.0158 12.2622 34.8765C11.778 34.7372 11.3345 34.4828 10.9698 34.1351C10.6051 33.7874 10.3299 33.3566 10.1676 32.8796C10.0053 32.4025 9.96084 31.8933 10.0379 31.3953C10.0659 31.2168 10.0549 31.0344 10.0057 30.8607C9.9564 30.6869 9.87007 30.5258 9.75261 30.3886C9.63514 30.2514 9.48934 30.1413 9.32523 30.0658C9.16112 29.9904 8.98261 29.9514 8.80199 29.9515C8.73763 29.9521 8.6734 29.9573 8.6098 29.9671C8.11233 30.0436 7.60374 29.9988 7.1273 29.8366C6.65086 29.6743 6.22067 29.3993 5.87332 29.0351C5.52597 28.6708 5.27174 28.2281 5.13226 27.7444C4.99278 27.2608 4.97217 26.7507 5.0722 26.2574C5.17222 25.7641 5.38991 25.3023 5.70676 24.9112C6.0236 24.5202 6.43021 24.2114 6.89201 24.0112C7.35381 23.8111 7.85713 23.7254 8.35915 23.7615C8.86117 23.7976 9.34704 23.9545 9.77542 24.2187C10.255 24.523 10.824 24.655 11.3886 24.5928C11.9532 24.5306 12.4798 24.278 12.8817 23.8765L23.8817 12.8765C24.2806 12.4743 24.5311 11.9485 24.5922 11.3853C24.6532 10.8221 24.5211 10.2549 24.2176 9.77652C23.9516 9.34856 23.793 8.86261 23.7553 8.36011C23.7177 7.8576 23.8021 7.35345 24.0014 6.89062C24.2007 6.4278 24.509 6.02004 24.9 5.70211C25.2909 5.38418 25.753 5.16552 26.2467 5.06475C26.7404 4.96399 27.2512 4.98412 27.7355 5.12343C28.2198 5.26274 28.6632 5.51709 29.0279 5.86481C29.3926 6.21252 29.6679 6.64328 29.8301 7.12035C29.9924 7.59742 30.0369 8.10666 29.9598 8.60465C29.9294 8.79913 29.9453 8.99805 30.0063 9.18521C30.0674 9.37237 30.1717 9.54247 30.3109 9.68167C30.4501 9.82086 30.6202 9.92521 30.8074 9.98623C30.9945 10.0472 31.1934 10.0632 31.3879 10.0328C32.0243 9.9298 32.6769 10.0261 33.2563 10.3086C33.8357 10.591 34.3137 11.0457 34.6246 11.6104C34.9355 12.175 35.0642 12.8221 34.993 13.4627C34.9218 14.1034 34.6543 14.7064 34.227 15.189L34.2332 15.1812Z" fill="#007660"/>
</svg>
