<svg width="40" height="40" viewBox="0 0 40 40" fill="none" xmlns="http://www.w3.org/2000/svg">
<path opacity="0.2" d="M37.4989 19.375C37.4994 20.9264 37.0188 22.4397 36.1233 23.7065C35.2278 24.9734 33.9615 25.9313 32.4989 26.4484V27.5C32.4989 29.1576 31.8404 30.7473 30.6683 31.9194C29.4962 33.0915 27.9065 33.75 26.2489 33.75C24.5913 33.75 23.0016 33.0915 21.8295 31.9194C20.6574 30.7473 19.9989 29.1576 19.9989 27.5C19.9989 29.1576 19.3404 30.7473 18.1683 31.9194C16.9962 33.0915 15.4065 33.75 13.7489 33.75C12.0913 33.75 10.5016 33.0915 9.32948 31.9194C8.15738 30.7473 7.4989 29.1576 7.4989 27.5V26.4484C6.03501 25.9324 4.76727 24.975 3.87052 23.708C2.97377 22.4411 2.49219 20.9272 2.49219 19.375C2.49219 17.8228 2.97377 16.3089 3.87052 15.042C4.76727 13.775 6.03501 12.8176 7.4989 12.3016V11.25C7.4989 9.5924 8.15738 8.00269 9.32948 6.83058C10.5016 5.65848 12.0913 5 13.7489 5C15.4065 5 16.9962 5.65848 18.1683 6.83058C19.3404 8.00269 19.9989 9.5924 19.9989 11.25C19.9989 9.5924 20.6574 8.00269 21.8295 6.83058C23.0016 5.65848 24.5913 5 26.2489 5C27.9065 5 29.4962 5.65848 30.6683 6.83058C31.8404 8.00269 32.4989 9.5924 32.4989 11.25V12.3016C33.9615 12.8187 35.2278 13.7766 36.1233 15.0435C37.0188 16.3103 37.4994 17.8236 37.4989 19.375Z" fill="#007660"/>
<path d="M38.7512 19.375C38.7495 17.7193 38.279 16.0978 37.3942 14.6984C36.5093 13.2989 35.2463 12.1786 33.7512 11.4672V11.25C33.7497 9.6394 33.2299 8.07205 32.2685 6.77986C31.3071 5.48767 29.9553 4.53929 28.413 4.07504C26.8708 3.61079 25.2201 3.65534 23.7051 4.2021C22.1902 4.74886 20.8915 5.76877 20.0012 7.11094C19.1109 5.76877 17.8122 4.74886 16.2972 4.2021C14.7823 3.65534 13.1316 3.61079 11.5893 4.07504C10.0471 4.53929 8.69526 5.48767 7.73388 6.77986C6.77249 8.07205 6.25261 9.6394 6.25117 11.25V11.4672C4.75482 12.1767 3.49054 13.2963 2.60525 14.6958C1.71995 16.0954 1.25 17.7174 1.25 19.3734C1.25 21.0295 1.71995 22.6515 2.60525 24.0511C3.49054 25.4506 4.75482 26.5702 6.25117 27.2797V27.5C6.25261 29.1106 6.77249 30.6779 7.73388 31.9701C8.69526 33.2623 10.0471 34.2107 11.5893 34.675C13.1316 35.1392 14.7823 35.0947 16.2972 34.5479C17.8122 34.0011 19.1109 32.9812 20.0012 31.6391C20.8915 32.9812 22.1902 34.0011 23.7051 34.5479C25.2201 35.0947 26.8708 35.1392 28.413 34.675C29.9553 34.2107 31.3071 33.2623 32.2685 31.9701C33.2299 30.6779 33.7497 29.1106 33.7512 27.5V27.2797C35.246 26.5688 36.509 25.449 37.3938 24.0501C38.2787 22.6512 38.7493 21.0303 38.7512 19.375ZM13.7512 32.5C12.5183 32.4998 11.3289 32.0441 10.4115 31.2205C9.49413 30.3968 8.9134 29.2633 8.78086 28.0375C9.18508 28.0952 9.59286 28.1244 10.0012 28.125H11.2512C11.5827 28.125 11.9006 27.9933 12.1351 27.7589C12.3695 27.5245 12.5012 27.2065 12.5012 26.875C12.5012 26.5435 12.3695 26.2255 12.1351 25.9911C11.9006 25.7567 11.5827 25.625 11.2512 25.625H10.0012C8.52548 25.6267 7.09678 25.1062 5.96801 24.1557C4.83924 23.2051 4.08322 21.8859 3.83379 20.4314C3.58437 18.9769 3.85763 17.4811 4.6052 16.2088C5.35276 14.9365 6.52641 13.9697 7.91836 13.4797C8.16191 13.3935 8.37276 13.2339 8.52189 13.0229C8.67103 12.8119 8.75113 12.5599 8.75117 12.3016V11.25C8.75117 9.92392 9.27796 8.65215 10.2156 7.71447C11.1533 6.77678 12.4251 6.25 13.7512 6.25C15.0773 6.25 16.349 6.77678 17.2867 7.71447C18.2244 8.65215 18.7512 9.92392 18.7512 11.25V21.9156C17.3785 20.6811 15.5973 19.9986 13.7512 20C13.4197 20 13.1017 20.1317 12.8673 20.3661C12.6329 20.6005 12.5012 20.9185 12.5012 21.25C12.5012 21.5815 12.6329 21.8995 12.8673 22.1339C13.1017 22.3683 13.4197 22.5 13.7512 22.5C15.0773 22.5 16.349 23.0268 17.2867 23.9645C18.2244 24.9021 18.7512 26.1739 18.7512 27.5C18.7512 28.8261 18.2244 30.0979 17.2867 31.0355C16.349 31.9732 15.0773 32.5 13.7512 32.5ZM30.0012 25.625H28.7512C28.4197 25.625 28.1017 25.7567 27.8673 25.9911C27.6329 26.2255 27.5012 26.5435 27.5012 26.875C27.5012 27.2065 27.6329 27.5245 27.8673 27.7589C28.1017 27.9933 28.4197 28.125 28.7512 28.125H30.0012C30.4095 28.1244 30.8173 28.0952 31.2215 28.0375C31.1176 28.9979 30.7378 29.9077 30.1279 30.6568C29.518 31.406 28.7041 31.9624 27.7847 32.2588C26.8653 32.5552 25.8797 32.579 24.9471 32.3271C24.0145 32.0753 23.1748 31.5587 22.5295 30.8398C21.8842 30.1209 21.461 29.2305 21.3111 28.2762C21.1611 27.3219 21.2908 26.3446 21.6845 25.4624C22.0781 24.5803 22.7189 23.831 23.5294 23.3053C24.3398 22.7796 25.2852 22.4999 26.2512 22.5C26.5827 22.5 26.9006 22.3683 27.1351 22.1339C27.3695 21.8995 27.5012 21.5815 27.5012 21.25C27.5012 20.9185 27.3695 20.6005 27.1351 20.3661C26.9006 20.1317 26.5827 20 26.2512 20C24.405 19.9986 22.6238 20.6811 21.2512 21.9156V11.25C21.2512 9.92392 21.778 8.65215 22.7156 7.71447C23.6533 6.77678 24.9251 6.25 26.2512 6.25C27.5773 6.25 28.849 6.77678 29.7867 7.71447C30.7244 8.65215 31.2512 9.92392 31.2512 11.25V12.3016C31.2512 12.5599 31.3313 12.8119 31.4805 13.0229C31.6296 13.2339 31.8404 13.3935 32.084 13.4797C33.4759 13.9697 34.6496 14.9365 35.3972 16.2088C36.1447 17.4811 36.418 18.9769 36.1686 20.4314C35.9191 21.8859 35.1631 23.2051 34.0343 24.1557C32.9056 25.1062 31.4769 25.6267 30.0012 25.625ZM32.5012 17.5C32.5012 17.8315 32.3695 18.1495 32.1351 18.3839C31.9006 18.6183 31.5827 18.75 31.2512 18.75H30.6262C29.1343 18.75 27.7036 18.1574 26.6487 17.1025C25.5938 16.0476 25.0012 14.6168 25.0012 13.125V12.5C25.0012 12.1685 25.1329 11.8505 25.3673 11.6161C25.6017 11.3817 25.9197 11.25 26.2512 11.25C26.5827 11.25 26.9006 11.3817 27.1351 11.6161C27.3695 11.8505 27.5012 12.1685 27.5012 12.5V13.125C27.5012 13.9538 27.8304 14.7487 28.4165 15.3347C29.0025 15.9208 29.7974 16.25 30.6262 16.25H31.2512C31.5827 16.25 31.9006 16.3817 32.1351 16.6161C32.3695 16.8505 32.5012 17.1685 32.5012 17.5ZM9.37617 18.75H8.75117C8.41965 18.75 8.10171 18.6183 7.86729 18.3839C7.63287 18.1495 7.50117 17.8315 7.50117 17.5C7.50117 17.1685 7.63287 16.8505 7.86729 16.6161C8.10171 16.3817 8.41965 16.25 8.75117 16.25H9.37617C10.205 16.25 10.9998 15.9208 11.5859 15.3347C12.1719 14.7487 12.5012 13.9538 12.5012 13.125V12.5C12.5012 12.1685 12.6329 11.8505 12.8673 11.6161C13.1017 11.3817 13.4197 11.25 13.7512 11.25C14.0827 11.25 14.4006 11.3817 14.6351 11.6161C14.8695 11.8505 15.0012 12.1685 15.0012 12.5V13.125C15.0012 14.6168 14.4085 16.0476 13.3536 17.1025C12.2988 18.1574 10.868 18.75 9.37617 18.75Z" fill="#007660"/>
</svg>
