<svg width="40" height="40" viewBox="0 0 40 40" fill="none" xmlns="http://www.w3.org/2000/svg">
<path opacity="0.2" d="M16.2188 21.8906L20 20L23.7812 21.8906C25.65 22.825 27.2215 24.2613 28.3199 26.0386C29.4183 27.8158 30 29.8638 30 31.9531V32.5H10V31.9531C9.99995 29.8638 10.5817 27.8158 11.6801 26.0386C12.7785 24.2613 14.35 22.825 16.2188 21.8906ZM30 8.04688V7.5H10V8.04688C9.99995 10.1362 10.5817 12.1842 11.6801 13.9614C12.7785 15.7387 14.35 17.175 16.2188 18.1094L20 20L23.7812 18.1094C25.65 17.175 27.2215 15.7387 28.3199 13.9614C29.4183 12.1842 30 10.1362 30 8.04688Z" fill="#007660"/>
<path d="M31.2501 31.9531V36.25C31.2501 36.5815 31.1184 36.8995 30.884 37.1339C30.6495 37.3683 30.3316 37.5 30.0001 37.5C29.6685 37.5 29.3506 37.3683 29.1162 37.1339C28.8818 36.8995 28.7501 36.5815 28.7501 36.25V31.9531C28.7562 30.0945 28.2416 28.2714 27.2645 26.6904C26.2874 25.1093 24.887 23.8336 23.2219 23.0078L15.6594 19.2281C13.5782 18.1959 11.8278 16.6013 10.6066 14.625C9.38543 12.6488 8.74227 10.37 8.75007 8.04688V3.75C8.75007 3.41848 8.88177 3.10054 9.11619 2.86612C9.35061 2.6317 9.66855 2.5 10.0001 2.5C10.3316 2.5 10.6495 2.6317 10.884 2.86612C11.1184 3.10054 11.2501 3.41848 11.2501 3.75V8.04688C11.2439 9.90545 11.7586 11.7286 12.7356 13.3096C13.7127 14.8907 15.1131 16.1664 16.7782 16.9922L24.3407 20.7719C26.4219 21.8041 28.1723 23.3987 29.3935 25.375C30.6147 27.3512 31.2579 29.63 31.2501 31.9531ZM25.0001 31.25H11.2766C11.3368 30.3984 11.5064 29.5582 11.7813 28.75H23.1423C23.4738 28.75 23.7917 28.6183 24.0261 28.3839C24.2606 28.1495 24.3923 27.8315 24.3923 27.5C24.3923 27.1685 24.2606 26.8505 24.0261 26.6161C23.7917 26.3817 23.4738 26.25 23.1423 26.25H13.0407C13.668 25.3432 14.4415 24.547 15.3298 23.8937C15.4623 23.7966 15.5744 23.6743 15.6597 23.5338C15.745 23.3933 15.8018 23.2374 15.8268 23.075C15.8518 22.9125 15.8446 22.7468 15.8056 22.5871C15.7665 22.4275 15.6964 22.2771 15.5993 22.1445C15.5021 22.012 15.3798 21.8999 15.2393 21.8146C15.0988 21.7293 14.9429 21.6725 14.7805 21.6475C14.6181 21.6225 14.4523 21.6297 14.2927 21.6687C14.133 21.7077 13.9826 21.7778 13.8501 21.875C12.2711 23.039 10.9871 24.5571 10.1014 26.3075C9.21563 28.0578 8.7528 29.9915 8.75007 31.9531V36.25C8.75007 36.5815 8.88177 36.8995 9.11619 37.1339C9.35061 37.3683 9.66855 37.5 10.0001 37.5C10.3316 37.5 10.6495 37.3683 10.884 37.1339C11.1184 36.8995 11.2501 36.5815 11.2501 36.25V33.75H25.0001C25.3316 33.75 25.6495 33.6183 25.884 33.3839C26.1184 33.1495 26.2501 32.8315 26.2501 32.5C26.2501 32.1685 26.1184 31.8505 25.884 31.6161C25.6495 31.3817 25.3316 31.25 25.0001 31.25ZM30.0001 2.5C29.6685 2.5 29.3506 2.6317 29.1162 2.86612C28.8818 3.10054 28.7501 3.41848 28.7501 3.75V6.25H15.0001C14.6685 6.25 14.3506 6.3817 14.1162 6.61612C13.8818 6.85054 13.7501 7.16848 13.7501 7.5C13.7501 7.83152 13.8818 8.14946 14.1162 8.38388C14.3506 8.6183 14.6685 8.75 15.0001 8.75H28.7235C28.6634 9.60155 28.4937 10.4418 28.2188 11.25H16.8579C16.5264 11.25 16.2084 11.3817 15.974 11.6161C15.7396 11.8505 15.6079 12.1685 15.6079 12.5C15.6079 12.8315 15.7396 13.1495 15.974 13.3839C16.2084 13.6183 16.5264 13.75 16.8579 13.75H26.9594C26.3322 14.6568 25.5586 15.453 24.6704 16.1063C24.538 16.2034 24.4261 16.3257 24.341 16.4661C24.2559 16.6065 24.1993 16.7623 24.1744 16.9246C24.1496 17.0869 24.1569 17.2525 24.196 17.4119C24.2351 17.5714 24.3053 17.7216 24.4024 17.8539C24.5986 18.1212 24.893 18.2996 25.2207 18.3498C25.383 18.3747 25.5486 18.3674 25.7081 18.3283C25.8675 18.2892 26.0177 18.219 26.1501 18.1219C27.7286 16.9582 29.0123 15.4405 29.8981 13.6908C30.7838 11.9411 31.2469 10.008 31.2501 8.04688V3.75C31.2501 3.41848 31.1184 3.10054 30.884 2.86612C30.6495 2.6317 30.3316 2.5 30.0001 2.5Z" fill="#007660"/>
</svg>
