<svg width="40" height="40" viewBox="0 0 40 40" fill="none" xmlns="http://www.w3.org/2000/svg">
<path opacity="0.2" d="M20 8.75C7.5 8.75 2.5 20 2.5 20C2.5 20 7.5 31.25 20 31.25C32.5 31.25 37.5 20 37.5 20C37.5 20 32.5 8.75 20 8.75ZM20 26.25C18.7639 26.25 17.5555 25.8834 16.5277 25.1967C15.4999 24.5099 14.6988 23.5338 14.2258 22.3918C13.7527 21.2497 13.6289 19.9931 13.8701 18.7807C14.1112 17.5683 14.7065 16.4547 15.5806 15.5806C16.4547 14.7065 17.5683 14.1112 18.7807 13.8701C19.9931 13.6289 21.2497 13.7527 22.3918 14.2258C23.5338 14.6988 24.5099 15.4999 25.1967 16.5277C25.8834 17.5555 26.25 18.7639 26.25 20C26.25 21.6576 25.5915 23.2473 24.4194 24.4194C23.2473 25.5915 21.6576 26.25 20 26.25Z" fill="#007660"/>
<path d="M38.6422 19.4938C38.5875 19.3703 37.264 16.4344 34.3219 13.4922C30.4015 9.57187 25.45 7.5 20 7.5C14.55 7.5 9.59842 9.57187 5.67811 13.4922C2.73592 16.4344 1.40624 19.375 1.3578 19.4938C1.28672 19.6536 1.25 19.8266 1.25 20.0016C1.25 20.1765 1.28672 20.3495 1.3578 20.5094C1.41249 20.6328 2.73592 23.5672 5.67811 26.5094C9.59842 30.4281 14.55 32.5 20 32.5C25.45 32.5 30.4015 30.4281 34.3219 26.5094C37.264 23.5672 38.5875 20.6328 38.6422 20.5094C38.7132 20.3495 38.75 20.1765 38.75 20.0016C38.75 19.8266 38.7132 19.6536 38.6422 19.4938ZM20 30C15.1906 30 10.989 28.2516 7.51092 24.8047C6.08381 23.3855 4.86965 21.7671 3.90623 20C4.86939 18.2327 6.08357 16.6143 7.51092 15.1953C10.989 11.7484 15.1906 10 20 10C24.8094 10 29.0109 11.7484 32.489 15.1953C33.9189 16.614 35.1357 18.2324 36.1015 20C34.975 22.1031 30.0672 30 20 30ZM20 12.5C18.5166 12.5 17.0666 12.9399 15.8332 13.764C14.5998 14.5881 13.6385 15.7594 13.0709 17.1299C12.5032 18.5003 12.3547 20.0083 12.6441 21.4632C12.9335 22.918 13.6478 24.2544 14.6967 25.3033C15.7456 26.3522 17.0819 27.0665 18.5368 27.3559C19.9917 27.6453 21.4997 27.4968 22.8701 26.9291C24.2406 26.3614 25.4119 25.4001 26.236 24.1668C27.0601 22.9334 27.5 21.4834 27.5 20C27.4979 18.0115 26.7071 16.1051 25.301 14.699C23.8949 13.2929 21.9885 12.5021 20 12.5ZM20 25C19.0111 25 18.0444 24.7068 17.2221 24.1573C16.3999 23.6079 15.759 22.827 15.3806 21.9134C15.0021 20.9998 14.9031 19.9945 15.0961 19.0245C15.289 18.0546 15.7652 17.1637 16.4644 16.4645C17.1637 15.7652 18.0546 15.289 19.0245 15.0961C19.9944 14.9031 20.9998 15.0022 21.9134 15.3806C22.827 15.759 23.6079 16.3999 24.1573 17.2221C24.7067 18.0444 25 19.0111 25 20C25 21.3261 24.4732 22.5979 23.5355 23.5355C22.5978 24.4732 21.3261 25 20 25Z" fill="#007660"/>
</svg>
