<svg width="40" height="40" viewBox="0 0 40 40" fill="none" xmlns="http://www.w3.org/2000/svg">
<path opacity="0.2" d="M33.75 12.4625C33.761 23.6219 30.0813 32.4984 26.875 34.7719C26.6938 34.8968 26.4828 34.9717 26.2633 34.989C26.0438 35.0062 25.8237 34.9652 25.6252 34.8701C25.4267 34.7749 25.2568 34.629 25.1328 34.4472C25.0087 34.2653 24.9349 34.0539 24.9188 33.8344C24.6875 30.6734 23.75 25 20 25C16.25 25 15.3125 30.6734 15.0766 33.8328C15.0605 34.0524 14.9866 34.2638 14.8626 34.4456C14.7386 34.6275 14.5687 34.7734 14.3702 34.8685C14.1716 34.9636 13.9515 35.0047 13.732 34.9874C13.5126 34.9702 13.3016 34.8953 13.1203 34.7703C9.91877 32.5 6.23909 23.6219 6.25002 12.4625C6.25747 10.4791 7.05123 8.57965 8.45722 7.18069C9.8632 5.78174 11.7666 4.99751 13.75 5.00001H26.25C28.2334 4.99751 30.1368 5.78174 31.5428 7.18069C32.9488 8.57965 33.7426 10.4791 33.75 12.4625Z" fill="#007660"/>
<path d="M26.7188 11.1594L23.3656 12.5L26.7188 13.8391C27.0264 13.9634 27.2721 14.2048 27.4018 14.5103C27.5315 14.8158 27.5345 15.1603 27.4102 15.468C27.2858 15.7757 27.0444 16.0214 26.7389 16.151C26.4334 16.2807 26.0889 16.2837 25.7812 16.1594L20 13.8453L14.2188 16.1594C14.0664 16.2209 13.9034 16.2519 13.7391 16.2504C13.5748 16.249 13.4124 16.2152 13.2611 16.151C13.1098 16.0868 12.9727 15.9935 12.8575 15.8763C12.7424 15.7591 12.6514 15.6203 12.5898 15.468C12.5283 15.3156 12.4973 15.1526 12.4988 14.9883C12.5002 14.824 12.534 14.6616 12.5982 14.5103C12.6624 14.3591 12.7558 14.2219 12.873 14.1068C12.9902 13.9916 13.1289 13.9006 13.2812 13.8391L16.6344 12.5L13.2812 11.1594C13.1289 11.0978 12.9902 11.0069 12.873 10.8917C12.7558 10.7765 12.6624 10.6394 12.5982 10.4881C12.534 10.3369 12.5002 10.1744 12.4988 10.0101C12.4973 9.84581 12.5283 9.68282 12.5898 9.53047C12.6514 9.37811 12.7424 9.23938 12.8575 9.12218C12.9727 9.00498 13.1098 8.91161 13.2611 8.84741C13.4124 8.78321 13.5748 8.74942 13.7391 8.74799C13.9034 8.74656 14.0664 8.77751 14.2188 8.83906L20 11.1531L25.7812 8.83906C25.9336 8.77751 26.0966 8.74656 26.2609 8.74799C26.4252 8.74942 26.5876 8.78321 26.7389 8.84741C26.8902 8.91161 27.0273 9.00498 27.1425 9.12218C27.2576 9.23938 27.3486 9.37811 27.4102 9.53047C27.4717 9.68282 27.5027 9.84581 27.5012 10.0101C27.4998 10.1744 27.466 10.3369 27.4018 10.4881C27.3376 10.6394 27.2442 10.7765 27.127 10.8917C27.0098 11.0069 26.8711 11.0978 26.7188 11.1594ZM35 12.4609C35 19.1359 33.75 24.2422 32.7031 27.3484C31.3406 31.3797 29.4813 34.4562 27.6031 35.7859C27.2458 36.043 26.8258 36.1992 26.3873 36.2379C25.9487 36.2767 25.5079 36.1967 25.1109 36.0062C24.7085 35.8164 24.3637 35.5231 24.1117 35.1563C23.8597 34.7896 23.7095 34.3625 23.6766 33.9188C23.5437 32.1219 22.8875 26.25 20 26.25C17.1125 26.25 16.4563 32.1234 16.3234 33.9234C16.2766 34.555 15.9931 35.1457 15.5296 35.5773C15.0661 36.009 14.4568 36.2498 13.8234 36.2516C13.3114 36.2509 12.8125 36.0897 12.3969 35.7906C10.5219 34.4578 8.65938 31.3813 7.29688 27.3531C6.25 24.2422 5 19.1359 5 12.4609C5.01033 10.1471 5.93676 7.93149 7.57659 6.29899C9.21641 4.66649 11.4361 3.74998 13.75 3.75H26.25C28.5639 3.74998 30.7836 4.66649 32.4234 6.29899C34.0632 7.93149 34.9897 10.1471 35 12.4609ZM32.5 12.4609C32.4897 10.8101 31.8266 9.23042 30.6557 8.06675C29.4847 6.90308 27.9009 6.24997 26.25 6.25H13.75C12.0989 6.24997 10.5148 6.9033 9.34379 8.0673C8.17276 9.23131 7.50991 10.8114 7.5 12.4625C7.5 18.7984 8.67344 23.6187 9.66406 26.5469C11.3906 31.65 13.2578 33.3234 13.8219 33.7344C14.3078 27.2922 16.4984 23.75 20 23.75C23.5016 23.75 25.6953 27.2984 26.1703 33.7406C26.7328 33.3359 28.6031 31.6688 30.3359 26.5531C31.3266 23.6187 32.5 18.7984 32.5 12.4625V12.4609Z" fill="#007660"/>
</svg>
