<svg width="40" height="40" viewBox="0 0 40 40" fill="none" xmlns="http://www.w3.org/2000/svg">
<g clip-path="url(#clip0_4949_9513)">
<path opacity="0.2" d="M38.75 18.75V28.75C38.75 29.0815 38.6183 29.3995 38.3839 29.6339C38.1495 29.8683 37.8315 30 37.5 30H33.75C33.7501 29.4 33.6062 28.8088 33.3304 28.276C33.0547 27.7432 32.6551 27.2843 32.1652 26.9379C31.6754 26.5914 31.1096 26.3676 30.5153 26.2852C29.921 26.2027 29.3156 26.2641 28.75 26.4641C28.0188 26.7226 27.3857 27.2014 26.938 27.8347C26.4903 28.468 26.2499 29.2245 26.25 30H16.25C16.25 29.0054 15.8549 28.0516 15.1517 27.3483C14.4484 26.6451 13.4946 26.25 12.5 26.25C11.5054 26.25 10.5516 26.6451 9.84835 27.3483C9.14509 28.0516 8.75 29.0054 8.75 30H5C4.66848 30 4.35054 29.8683 4.11612 29.6339C3.8817 29.3995 3.75 29.0815 3.75 28.75V11.25C3.75 10.9185 3.8817 10.6005 4.11612 10.3661C4.35054 10.1317 4.66848 10 5 10H28.75V18.75H38.75Z" fill="#007660"/>
<path d="M12.5 18.75C12.5 18.4185 12.6317 18.1005 12.8661 17.8661C13.1005 17.6317 13.4185 17.5 13.75 17.5H16.25V15C16.25 14.6685 16.3817 14.3505 16.6161 14.1161C16.8505 13.8817 17.1685 13.75 17.5 13.75C17.8315 13.75 18.1495 13.8817 18.3839 14.1161C18.6183 14.3505 18.75 14.6685 18.75 15V17.5H21.25C21.5815 17.5 21.8995 17.6317 22.1339 17.8661C22.3683 18.1005 22.5 18.4185 22.5 18.75C22.5 19.0815 22.3683 19.3995 22.1339 19.6339C21.8995 19.8683 21.5815 20 21.25 20H18.75V22.5C18.75 22.8315 18.6183 23.1495 18.3839 23.3839C18.1495 23.6183 17.8315 23.75 17.5 23.75C17.1685 23.75 16.8505 23.6183 16.6161 23.3839C16.3817 23.1495 16.25 22.8315 16.25 22.5V20H13.75C13.4185 20 13.1005 19.8683 12.8661 19.6339C12.6317 19.3995 12.5 19.0815 12.5 18.75ZM40 18.75V28.75C40 29.413 39.7366 30.0489 39.2678 30.5178C38.7989 30.9866 38.163 31.25 37.5 31.25H34.8438C34.5684 32.3255 33.9429 33.2788 33.0659 33.9595C32.1889 34.6403 31.1102 35.0098 30 35.0098C28.8898 35.0098 27.8111 34.6403 26.9341 33.9595C26.0571 33.2788 25.4316 32.3255 25.1562 31.25H17.3438C17.0684 32.3255 16.4429 33.2788 15.5659 33.9595C14.6889 34.6403 13.6102 35.0098 12.5 35.0098C11.3898 35.0098 10.3111 34.6403 9.43414 33.9595C8.55713 33.2788 7.93163 32.3255 7.65625 31.25H5C4.33696 31.25 3.70107 30.9866 3.23223 30.5178C2.76339 30.0489 2.5 29.413 2.5 28.75V11.25C2.5 10.587 2.76339 9.95107 3.23223 9.48223C3.70107 9.01339 4.33696 8.75 5 8.75H28.75C29.0815 8.75 29.3995 8.8817 29.6339 9.11612C29.8683 9.35054 30 9.66848 30 10V11.25H35.4031C35.9033 11.2484 36.3923 11.3975 36.8065 11.6779C37.2206 11.9583 37.5407 12.3569 37.725 12.8219L39.9125 18.2906C39.9706 18.4368 40.0003 18.5927 40 18.75ZM30 13.75V17.5H36.9031L35.4031 13.75H30ZM5 28.75H7.65625C7.93163 27.6745 8.55713 26.7212 9.43414 26.0405C10.3111 25.3597 11.3898 24.9902 12.5 24.9902C13.6102 24.9902 14.6889 25.3597 15.5659 26.0405C16.4429 26.7212 17.0684 27.6745 17.3438 28.75H25.1562C25.3239 28.1076 25.6174 27.5049 26.0198 26.9768C26.4221 26.4487 26.9252 26.0057 27.5 25.6734V11.25H5V28.75ZM15 30C15 29.5055 14.8534 29.0222 14.5787 28.6111C14.304 28.2 13.9135 27.8795 13.4567 27.6903C12.9999 27.5011 12.4972 27.4516 12.0123 27.548C11.5273 27.6445 11.0819 27.8826 10.7322 28.2322C10.3826 28.5819 10.1445 29.0273 10.048 29.5123C9.95157 29.9972 10.0011 30.4999 10.1903 30.9567C10.3795 31.4135 10.7 31.804 11.1111 32.0787C11.5222 32.3534 12.0055 32.5 12.5 32.5C13.163 32.5 13.7989 32.2366 14.2678 31.7678C14.7366 31.2989 15 30.663 15 30ZM32.5 30C32.5 29.5055 32.3534 29.0222 32.0787 28.6111C31.804 28.2 31.4135 27.8795 30.9567 27.6903C30.4999 27.5011 29.9972 27.4516 29.5123 27.548C29.0273 27.6445 28.5819 27.8826 28.2322 28.2322C27.8826 28.5819 27.6445 29.0273 27.548 29.5123C27.4516 29.9972 27.5011 30.4999 27.6903 30.9567C27.8795 31.4135 28.2 31.804 28.6111 32.0787C29.0222 32.3534 29.5055 32.5 30 32.5C30.663 32.5 31.2989 32.2366 31.7678 31.7678C32.2366 31.2989 32.5 30.663 32.5 30ZM37.5 28.75V20H30V25C31.1085 25.001 32.1854 25.3697 33.0619 26.0483C33.9384 26.7269 34.5651 27.6771 34.8438 28.75H37.5Z" fill="#007660"/>
</g>
<defs>
<clipPath id="clip0_4949_9513">
<rect width="40" height="40" fill="white"/>
</clipPath>
</defs>
</svg>
