<svg width="40" height="40" viewBox="0 0 40 40" fill="none" xmlns="http://www.w3.org/2000/svg">
<path opacity="0.2" d="M13.75 7.5V8.75C13.75 10.0761 13.2232 11.3479 12.2855 12.2855C11.3479 13.2232 10.0761 13.75 8.75 13.75H5V12.5C5 11.1739 5.52678 9.90215 6.46447 8.96447C7.40215 8.02678 8.67392 7.5 10 7.5H13.75Z" fill="#007660"/>
<path d="M33.75 12.3438V12.5C33.75 14.1576 33.0915 15.7473 31.9194 16.9194C30.7473 18.0915 29.1576 18.75 27.5 18.75H21.25V31.25H22.5C23.0065 31.2503 23.5011 31.0967 23.9184 30.8095C24.3357 30.5224 24.6559 30.1153 24.8367 29.6422C25.0174 29.169 25.0502 28.6521 24.9306 28.1599C24.8111 27.6677 24.5449 27.2235 24.1672 26.8859C23.9326 26.6618 23.7944 26.3554 23.7817 26.0312C23.7689 25.7071 23.8827 25.3907 24.0989 25.1489C24.3152 24.9071 24.617 24.7588 24.9405 24.7354C25.264 24.712 25.584 24.8153 25.8328 25.0234C26.5875 25.6985 27.1194 26.5868 27.3582 27.5708C27.597 28.5547 27.5314 29.588 27.1702 30.5339C26.8089 31.4798 26.169 32.2937 25.3351 32.868C24.5012 33.4423 23.5125 33.7498 22.5 33.75H21.25V36.25C21.25 36.5815 21.1183 36.8995 20.8839 37.1339C20.6495 37.3683 20.3315 37.5 20 37.5C19.6685 37.5 19.3505 37.3683 19.1161 37.1339C18.8817 36.8995 18.75 36.5815 18.75 36.25V33.75H15C14.6685 33.75 14.3505 33.6183 14.1161 33.3839C13.8817 33.1495 13.75 32.8315 13.75 32.5C13.75 32.1685 13.8817 31.8505 14.1161 31.6161C14.3505 31.3817 14.6685 31.25 15 31.25H18.75V18.75H15C14.337 18.75 13.7011 19.0134 13.2322 19.4822C12.7634 19.9511 12.5 20.587 12.5 21.25C12.5 21.913 12.7634 22.5489 13.2322 23.0178C13.7011 23.4866 14.337 23.75 15 23.75C15.3315 23.75 15.6495 23.8817 15.8839 24.1161C16.1183 24.3505 16.25 24.6685 16.25 25C16.25 25.3315 16.1183 25.6495 15.8839 25.8839C15.6495 26.1183 15.3315 26.25 15 26.25C13.6739 26.25 12.4021 25.7232 11.4645 24.7855C10.5268 23.8479 10 22.5761 10 21.25C10 19.9239 10.5268 18.6521 11.4645 17.7145C12.4021 16.7768 13.6739 16.25 15 16.25H18.75V3.75C18.75 3.41848 18.8817 3.10054 19.1161 2.86612C19.3505 2.6317 19.6685 2.5 20 2.5C20.3315 2.5 20.6495 2.6317 20.8839 2.86612C21.1183 3.10054 21.25 3.41848 21.25 3.75V16.25H27.5C28.4946 16.25 29.4484 15.8549 30.1517 15.1517C30.8549 14.4484 31.25 13.4946 31.25 12.5V12.3438C31.25 11.3906 30.8714 10.4765 30.1974 9.80259C29.5235 9.12863 28.6094 8.75 27.6562 8.75H25C24.6685 8.75 24.3505 8.6183 24.1161 8.38388C23.8817 8.14946 23.75 7.83152 23.75 7.5C23.75 7.16848 23.8817 6.85054 24.1161 6.61612C24.3505 6.3817 24.6685 6.25 25 6.25H27.6562C29.2724 6.25 30.8224 6.89202 31.9652 8.03482C33.108 9.17762 33.75 10.7276 33.75 12.3438ZM8.75 15H5C4.66848 15 4.35054 14.8683 4.11612 14.6339C3.8817 14.3995 3.75 14.0815 3.75 13.75V12.5C3.75 10.8424 4.40848 9.25269 5.58058 8.08058C6.75269 6.90848 8.3424 6.25 10 6.25H15C15.3315 6.25 15.6495 6.3817 15.8839 6.61612C16.1183 6.85054 16.25 7.16848 16.25 7.5C16.25 7.83152 16.1183 8.14946 15.8839 8.38388C15.6495 8.6183 15.3315 8.75 15 8.75C15 9.57076 14.8383 10.3835 14.5242 11.1418C14.2102 11.9001 13.7498 12.5891 13.1694 13.1694C12.5891 13.7498 11.9001 14.2102 11.1418 14.5242C10.3835 14.8383 9.57076 15 8.75 15ZM12.5 8.75H10C9.00544 8.75 8.05161 9.14509 7.34835 9.84835C6.64509 10.5516 6.25 11.5054 6.25 12.5H8.75C9.74456 12.5 10.6984 12.1049 11.4017 11.4017C12.1049 10.6984 12.5 9.74456 12.5 8.75Z" fill="#007660"/>
</svg>
