<svg width="40" height="40" viewBox="0 0 40 40" fill="none" xmlns="http://www.w3.org/2000/svg">
<path opacity="0.2" d="M26.25 16.25V26.25L20.3656 32.1344C20.1312 32.3686 19.8134 32.5002 19.482 32.5002C19.1507 32.5002 18.8328 32.3686 18.5984 32.1344L10.3656 23.9063C10.1314 23.6719 9.9998 23.354 9.9998 23.0227C9.9998 22.6913 10.1314 22.3735 10.3656 22.1391L16.25 16.25H26.25ZM12.5 9.375C12.5 8.75694 12.3167 8.15275 11.9733 7.63884C11.63 7.12494 11.1419 6.7244 10.5709 6.48788C9.99987 6.25135 9.37154 6.18947 8.76534 6.31005C8.15915 6.43063 7.60233 6.72825 7.16529 7.16529C6.72825 7.60233 6.43063 8.15915 6.31005 8.76534C6.18947 9.37154 6.25135 9.99987 6.48788 10.5709C6.7244 11.1419 7.12494 11.63 7.63884 11.9733C8.15275 12.3167 8.75694 12.5 9.375 12.5C10.2038 12.5 10.9987 12.1708 11.5847 11.5847C12.1708 10.9987 12.5 10.2038 12.5 9.375Z" fill="#007660"/>
<path d="M38.0172 12.7141L29.7859 4.4828C29.5538 4.25059 29.2782 4.06639 28.9748 3.94072C28.6715 3.81505 28.3463 3.75037 28.018 3.75037C27.6896 3.75037 27.3645 3.81505 27.0611 3.94072C26.7578 4.06639 26.4822 4.25059 26.25 4.4828L9.48281 21.25C9.25061 21.4821 9.06641 21.7578 8.94073 22.0611C8.81506 22.3645 8.75038 22.6896 8.75038 23.018C8.75038 23.3463 8.81506 23.6714 8.94073 23.9748C9.06641 24.2782 9.25061 24.5538 9.48281 24.7859L12.7141 28.0172L5.37031 35.3609C5.13576 35.5955 5.00399 35.9136 5.00399 36.2453C5.00399 36.577 5.13576 36.8951 5.37031 37.1297C5.60486 37.3642 5.92298 37.496 6.25469 37.496C6.58639 37.496 6.90451 37.3642 7.13906 37.1297L14.4828 29.7859L17.7141 33.0172C17.9462 33.2494 18.2218 33.4336 18.5252 33.5593C18.8285 33.6849 19.1537 33.7496 19.482 33.7496C19.8104 33.7496 20.1355 33.6849 20.4389 33.5593C20.7422 33.4336 21.0178 33.2494 21.25 33.0172L38.0172 16.25C38.2494 16.0178 38.4336 15.7422 38.5593 15.4389C38.6849 15.1355 38.7496 14.8104 38.7496 14.482C38.7496 14.1537 38.6849 13.8285 38.5593 13.5252C38.4336 13.2218 38.2494 12.9462 38.0172 12.7141ZM19.4828 31.25L16.25 28.0172L20.8844 23.3844C21.1189 23.1498 21.2507 22.8317 21.2507 22.5C21.2507 22.1683 21.1189 21.8502 20.8844 21.6156C20.6498 21.3811 20.3317 21.2493 20 21.2493C19.6683 21.2493 19.3502 21.3811 19.1156 21.6156L14.4828 26.25L11.25 23.0172L16.7672 17.5H25V25.7328L19.4828 31.25ZM36.25 14.4828L27.5 23.2328V16.25C27.5 15.9185 27.3683 15.6005 27.1339 15.3661C26.8995 15.1317 26.5815 15 26.25 15H19.2672L28.0172 6.24999L36.25 14.4812V14.4828ZM9.375 13.75C10.2403 13.75 11.0862 13.4934 11.8056 13.0127C12.5251 12.5319 13.0858 11.8487 13.417 11.0492C13.7481 10.2498 13.8347 9.37014 13.6659 8.52147C13.4971 7.6728 13.0804 6.89325 12.4686 6.2814C11.8567 5.66954 11.0772 5.25286 10.2285 5.08405C9.37985 4.91524 8.50019 5.00188 7.70076 5.33302C6.90133 5.66415 6.21805 6.2249 5.73732 6.94437C5.25659 7.66383 5 8.5097 5 9.37499C5 10.5353 5.46094 11.6481 6.28141 12.4686C7.10188 13.2891 8.21468 13.75 9.375 13.75ZM9.375 7.49999C9.74584 7.49999 10.1084 7.60996 10.4167 7.81598C10.725 8.02201 10.9654 8.31485 11.1073 8.65746C11.2492 9.00007 11.2863 9.37707 11.214 9.74078C11.1416 10.1045 10.963 10.4386 10.7008 10.7008C10.4386 10.963 10.1045 11.1416 9.74079 11.214C9.37708 11.2863 9.00008 11.2492 8.65747 11.1073C8.31486 10.9653 8.02202 10.725 7.81599 10.4167C7.60997 10.1083 7.5 9.74583 7.5 9.37499C7.5 8.87771 7.69754 8.40079 8.04917 8.04916C8.40081 7.69753 8.87772 7.49999 9.375 7.49999Z" fill="#007660"/>
</svg>
