<svg width="40" height="40" viewBox="0 0 40 40" fill="none" xmlns="http://www.w3.org/2000/svg">
<path opacity="0.2" d="M23.75 21.5625V7.5C23.75 6.17392 23.2232 4.90215 22.2855 3.96447C21.3479 3.02678 20.0761 2.5 18.75 2.5C17.4239 2.5 16.1521 3.02678 15.2145 3.96447C14.2768 4.90215 13.75 6.17392 13.75 7.5V21.5625C12.2213 22.627 11.0722 24.1516 10.4699 25.9143C9.86765 27.6771 9.8437 29.5861 10.4015 31.3634C10.9594 33.1408 12.0699 34.6937 13.5714 35.7962C15.073 36.8987 16.8872 37.4932 18.75 37.4932C20.6128 37.4932 22.427 36.8987 23.9286 35.7962C25.4301 34.6937 26.5406 33.1408 27.0985 31.3634C27.6563 29.5861 27.6323 27.6771 27.0301 25.9143C26.4278 24.1516 25.2787 22.627 23.75 21.5625ZM18.75 32.5C18.0083 32.5 17.2833 32.2801 16.6666 31.868C16.0499 31.456 15.5693 30.8703 15.2855 30.1851C15.0016 29.4998 14.9274 28.7458 15.0721 28.0184C15.2167 27.291 15.5739 26.6228 16.0983 26.0983C16.6228 25.5739 17.291 25.2167 18.0184 25.0721C18.7458 24.9274 19.4998 25.0016 20.1851 25.2855C20.8703 25.5693 21.456 26.0499 21.868 26.6666C22.2801 27.2833 22.5 28.0083 22.5 28.75C22.5 29.7446 22.1049 30.6984 21.4017 31.4017C20.6984 32.1049 19.7446 32.5 18.75 32.5Z" fill="#007660"/>
<path d="M20 23.9063V7.5C20 7.16848 19.8683 6.85054 19.6339 6.61612C19.3995 6.3817 19.0815 6.25 18.75 6.25C18.4185 6.25 18.1005 6.3817 17.8661 6.61612C17.6317 6.85054 17.5 7.16848 17.5 7.5V23.9063C16.3217 24.2105 15.2948 24.934 14.6117 25.9413C13.9287 26.9485 13.6365 28.1702 13.7899 29.3775C13.9432 30.5848 14.5316 31.6947 15.4447 32.4992C16.3578 33.3036 17.533 33.7475 18.75 33.7475C19.967 33.7475 21.1422 33.3036 22.0553 32.4992C22.9684 31.6947 23.5568 30.5848 23.7101 29.3775C23.8635 28.1702 23.5713 26.9485 22.8883 25.9413C22.2052 24.934 21.1783 24.2105 20 23.9063ZM18.75 31.25C18.2555 31.25 17.7722 31.1034 17.3611 30.8287C16.95 30.554 16.6295 30.1635 16.4403 29.7067C16.2511 29.2499 16.2016 28.7472 16.298 28.2623C16.3945 27.7773 16.6326 27.3319 16.9822 26.9822C17.3319 26.6326 17.7773 26.3945 18.2623 26.298C18.7472 26.2016 19.2499 26.2511 19.7067 26.4403C20.1635 26.6295 20.554 26.95 20.8287 27.3611C21.1034 27.7722 21.25 28.2555 21.25 28.75C21.25 29.413 20.9866 30.0489 20.5178 30.5178C20.0489 30.9866 19.413 31.25 18.75 31.25ZM25 20.9375V7.5C25 5.8424 24.3415 4.25269 23.1694 3.08058C21.9973 1.90848 20.4076 1.25 18.75 1.25C17.0924 1.25 15.5027 1.90848 14.3306 3.08058C13.1585 4.25269 12.5 5.8424 12.5 7.5V20.9375C10.8827 22.2324 9.70749 23.9977 9.13682 25.9893C8.56616 27.981 8.62819 30.1008 9.31436 32.0557C10.0005 34.0106 11.277 35.7041 12.9672 36.9022C14.6575 38.1002 16.6782 38.7438 18.75 38.7438C20.8218 38.7438 22.8425 38.1002 24.5328 36.9022C26.223 35.7041 27.4995 34.0106 28.1856 32.0557C28.8718 30.1008 28.9338 27.981 28.3632 25.9893C27.7925 23.9977 26.6173 22.2324 25 20.9375ZM18.75 36.25C17.153 36.2501 15.5977 35.7405 14.3105 34.7954C13.0233 33.8502 12.0713 32.5188 11.5933 30.9951C11.1153 29.4713 11.1361 27.8348 11.6527 26.3237C12.1693 24.8126 13.1548 23.5059 14.4656 22.5938C14.6315 22.4779 14.7668 22.3236 14.8599 22.144C14.9529 21.9643 15.001 21.7648 15 21.5625V7.5C15 6.50544 15.3951 5.55161 16.0983 4.84835C16.8016 4.14509 17.7554 3.75 18.75 3.75C19.7446 3.75 20.6984 4.14509 21.4017 4.84835C22.1049 5.55161 22.5 6.50544 22.5 7.5V21.5625C22.5 21.7638 22.5486 21.962 22.6416 22.1405C22.7346 22.3189 22.8694 22.4723 23.0344 22.5875C24.3479 23.4987 25.336 24.8058 25.8544 26.3181C26.3728 27.8304 26.3944 29.4687 25.916 30.9942C25.4377 32.5196 24.4844 33.8522 23.1953 34.7977C21.9062 35.7432 20.3487 36.2521 18.75 36.25ZM27.7031 12.6203C27.5221 12.3427 27.4587 12.0044 27.527 11.6801C27.5952 11.3557 27.7896 11.0717 28.0672 10.8906C30.4109 9.36094 32.2656 10.1484 33.6156 10.725C34.8438 11.25 35.5875 11.5625 36.8172 10.7641C37.095 10.583 37.4335 10.5197 37.758 10.5881C38.0825 10.6565 38.3666 10.8511 38.5477 11.1289C38.7288 11.4068 38.792 11.7452 38.7236 12.0697C38.6552 12.3942 38.4607 12.6783 38.1828 12.8594C37.1687 13.5203 36.25 13.75 35.4203 13.75C34.3266 13.75 33.4016 13.3531 32.6344 13.0266C31.4062 12.5 30.6625 12.1875 29.4328 12.9859C29.2952 13.0755 29.1414 13.1371 28.98 13.1672C28.8186 13.1973 28.6529 13.1953 28.4922 13.1614C28.3316 13.1274 28.1793 13.0622 28.0439 12.9693C27.9085 12.8765 27.7927 12.7579 27.7031 12.6203ZM38.5469 16.1297C38.7279 16.4073 38.7913 16.7456 38.723 17.0699C38.6548 17.3943 38.4604 17.6783 38.1828 17.8594C37.1687 18.5203 36.25 18.75 35.4203 18.75C34.3266 18.75 33.4016 18.3531 32.6344 18.0266C31.4047 17.5016 30.6625 17.1859 29.4328 17.9875C29.2952 18.0772 29.1413 18.1389 28.9799 18.1691C28.8185 18.1992 28.6527 18.1974 28.492 18.1635C28.3313 18.1296 28.1789 18.0644 28.0434 17.9716C27.9079 17.8788 27.792 17.7602 27.7023 17.6227C27.5212 17.3448 27.458 17.0064 27.5264 16.6819C27.5948 16.3573 27.7893 16.0733 28.0672 15.8922C30.4109 14.3625 32.2656 15.15 33.6156 15.7266C34.8453 16.2516 35.5875 16.5688 36.8172 15.7656C37.0948 15.5846 37.4331 15.5212 37.7574 15.5895C38.0818 15.6578 38.3658 15.8521 38.5469 16.1297Z" fill="#007660"/>
</svg>
