<svg width="40" height="40" viewBox="0 0 40 40" fill="none" xmlns="http://www.w3.org/2000/svg">
<path opacity="0.2" d="M37.5 25C37.5 25.9889 37.2068 26.9556 36.6574 27.7779C36.1079 28.6001 35.327 29.241 34.4134 29.6194C33.4998 29.9978 32.4945 30.0969 31.5246 29.9039C30.5546 29.711 29.6637 29.2348 28.9645 28.5355C28.2652 27.8363 27.789 26.9454 27.5961 25.9755C27.4031 25.0055 27.5022 24.0002 27.8806 23.0866C28.259 22.173 28.8999 21.3921 29.7222 20.8427C30.5444 20.2932 31.5111 20 32.5 20C33.8261 20 35.0979 20.5268 36.0355 21.4645C36.9732 22.4021 37.5 23.6739 37.5 25Z" fill="#007660"/>
<path d="M34.375 25C34.375 25.3708 34.265 25.7334 34.059 26.0417C33.853 26.35 33.5601 26.5904 33.2175 26.7323C32.8749 26.8742 32.4979 26.9113 32.1342 26.839C31.7705 26.7666 31.4364 26.588 31.1742 26.3258C30.912 26.0636 30.7334 25.7295 30.661 25.3658C30.5887 25.0021 30.6258 24.6251 30.7677 24.2825C30.9096 23.9399 31.15 23.647 31.4583 23.441C31.7666 23.235 32.1292 23.125 32.5 23.125C32.9973 23.125 33.4742 23.3225 33.8258 23.6742C34.1775 24.0258 34.375 24.5027 34.375 25ZM33.6641 31.1391C33.3895 32.9091 32.4915 34.5228 31.1321 35.6891C29.7726 36.8555 28.0412 37.4977 26.25 37.5H22.5C20.5115 37.4979 18.6051 36.7071 17.199 35.301C15.7929 33.8949 15.0021 31.9885 15 30V23.6703C12.5836 23.3659 10.3614 22.1901 8.75041 20.3636C7.13939 18.5371 6.25031 16.1855 6.25 13.75V6.25C6.25 5.91848 6.3817 5.60054 6.61612 5.36612C6.85054 5.1317 7.16848 5 7.5 5H11.25C11.5815 5 11.8995 5.1317 12.1339 5.36612C12.3683 5.60054 12.5 5.91848 12.5 6.25C12.5 6.58152 12.3683 6.89946 12.1339 7.13388C11.8995 7.3683 11.5815 7.5 11.25 7.5H8.75V13.75C8.74991 14.7434 8.94717 15.7269 9.33032 16.6434C9.71346 17.5599 10.2749 18.3912 10.9819 19.089C11.689 19.7867 12.5276 20.3371 13.4492 20.7081C14.3707 21.079 15.3567 21.2632 16.35 21.25C20.4297 21.1969 23.75 17.7734 23.75 13.6203V7.5H21.25C20.9185 7.5 20.6005 7.3683 20.3661 7.13388C20.1317 6.89946 20 6.58152 20 6.25C20 5.91848 20.1317 5.60054 20.3661 5.36612C20.6005 5.1317 20.9185 5 21.25 5H25C25.3315 5 25.6495 5.1317 25.8839 5.36612C26.1183 5.60054 26.25 5.91848 26.25 6.25V13.6203C26.25 18.7516 22.4172 23.0406 17.5 23.6687V30C17.5 31.3261 18.0268 32.5979 18.9645 33.5355C19.9021 34.4732 21.1739 35 22.5 35H26.25C27.3854 34.9981 28.4866 34.6106 29.3729 33.9008C30.2592 33.1911 30.8781 32.2013 31.1281 31.0938C29.6185 30.7547 28.2883 29.8676 27.3949 28.6044C26.5016 27.3411 26.1086 25.7913 26.2919 24.255C26.4753 22.7186 27.222 21.3049 28.3876 20.2874C29.5532 19.2698 31.0548 18.7208 32.6019 18.7466C34.1489 18.7723 35.6314 19.371 36.7625 20.4267C37.8936 21.4824 38.5929 22.9202 38.725 24.4618C38.8572 26.0034 38.4129 27.5392 37.478 28.7721C36.5431 30.005 35.1841 30.8472 33.6641 31.1359V31.1391ZM36.25 25C36.25 24.2583 36.0301 23.5333 35.618 22.9166C35.206 22.2999 34.6203 21.8193 33.9351 21.5355C33.2498 21.2516 32.4958 21.1774 31.7684 21.3221C31.041 21.4667 30.3728 21.8239 29.8483 22.3483C29.3239 22.8728 28.9667 23.541 28.8221 24.2684C28.6774 24.9958 28.7516 25.7498 29.0355 26.4351C29.3193 27.1203 29.7999 27.706 30.4166 28.118C31.0333 28.5301 31.7583 28.75 32.5 28.75C33.4946 28.75 34.4484 28.3549 35.1517 27.6517C35.8549 26.9484 36.25 25.9946 36.25 25Z" fill="#007660"/>
</svg>
