<svg width="24" height="24" viewBox="0 0 24 24" fill="none" xmlns="http://www.w3.org/2000/svg">
<path opacity="0.2" d="M12 9.75L8.25 6L12 2.25L15.75 6L12 9.75ZM8.25 18L12 21.75L15.75 18L12 14.25L8.25 18ZM18 8.25L14.25 12L18 15.75L21.75 12L18 8.25ZM6 8.25L2.25 12L6 15.75L9.75 12L6 8.25Z" fill="#FAFAFA"/>
<path d="M11.469 10.2806C11.5386 10.3503 11.6214 10.4057 11.7124 10.4434C11.8035 10.4811 11.9011 10.5006 11.9996 10.5006C12.0982 10.5006 12.1958 10.4811 12.2868 10.4434C12.3779 10.4057 12.4606 10.3503 12.5302 10.2806L16.2802 6.53061C16.35 6.46095 16.4053 6.37823 16.443 6.28719C16.4808 6.19614 16.5002 6.09854 16.5002 5.99998C16.5002 5.90142 16.4808 5.80382 16.443 5.71277C16.4053 5.62173 16.35 5.53901 16.2802 5.46936L12.5302 1.71935C12.4606 1.64962 12.3779 1.5943 12.2868 1.55656C12.1958 1.51882 12.0982 1.49939 11.9996 1.49939C11.9011 1.49939 11.8035 1.51882 11.7124 1.55656C11.6214 1.5943 11.5386 1.64962 11.469 1.71935L7.71899 5.46936C7.64926 5.53901 7.59394 5.62173 7.55619 5.71277C7.51845 5.80382 7.49902 5.90142 7.49902 5.99998C7.49902 6.09854 7.51845 6.19614 7.55619 6.28719C7.59394 6.37823 7.64926 6.46095 7.71899 6.53061L11.469 10.2806ZM11.9996 3.31029L14.6893 5.99998L11.9996 8.68967L9.30993 5.99998L11.9996 3.31029ZM12.5302 13.7165C12.4606 13.6468 12.3779 13.5915 12.2868 13.5537C12.1958 13.516 12.0982 13.4966 11.9996 13.4966C11.9011 13.4966 11.8035 13.516 11.7124 13.5537C11.6214 13.5915 11.5386 13.6468 11.469 13.7165L7.71899 17.4665C7.64926 17.5362 7.59394 17.6189 7.55619 17.71C7.51845 17.801 7.49902 17.8986 7.49902 17.9972C7.49902 18.0957 7.51845 18.1933 7.55619 18.2844C7.59394 18.3754 7.64926 18.4581 7.71899 18.5278L11.469 22.2778C11.5386 22.3475 11.6214 22.4028 11.7124 22.4406C11.8035 22.4783 11.9011 22.4978 11.9996 22.4978C12.0982 22.4978 12.1958 22.4783 12.2868 22.4406C12.3779 22.4028 12.4606 22.3475 12.5302 22.2778L16.2802 18.5278C16.35 18.4581 16.4053 18.3754 16.443 18.2844C16.4808 18.1933 16.5002 18.0957 16.5002 17.9972C16.5002 17.8986 16.4808 17.801 16.443 17.71C16.4053 17.6189 16.35 17.5362 16.2802 17.4665L12.5302 13.7165ZM11.9996 20.6897L9.30993 18L11.9996 15.3103L14.6893 18L11.9996 20.6897ZM22.2802 11.4694L18.5302 7.71935C18.4606 7.64962 18.3779 7.5943 18.2868 7.55656C18.1958 7.51882 18.0982 7.49939 17.9996 7.49939C17.9011 7.49939 17.8035 7.51882 17.7124 7.55656C17.6214 7.5943 17.5386 7.64962 17.469 7.71935L13.719 11.4694C13.6493 11.539 13.5939 11.6217 13.5562 11.7128C13.5184 11.8038 13.499 11.9014 13.499 12C13.499 12.0985 13.5184 12.1961 13.5562 12.2872C13.5939 12.3782 13.6493 12.461 13.719 12.5306L17.469 16.2806C17.5386 16.3503 17.6214 16.4057 17.7124 16.4434C17.8035 16.4811 17.9011 16.5006 17.9996 16.5006C18.0982 16.5006 18.1958 16.4811 18.2868 16.4434C18.3779 16.4057 18.4606 16.3503 18.5302 16.2806L22.2802 12.5306C22.35 12.461 22.4053 12.3782 22.443 12.2872C22.4808 12.1961 22.5002 12.0985 22.5002 12C22.5002 11.9014 22.4808 11.8038 22.443 11.7128C22.4053 11.6217 22.35 11.539 22.2802 11.4694ZM17.9996 14.6897L15.3099 12L17.9996 9.31029L20.6893 12L17.9996 14.6897ZM10.2802 11.4694L6.53024 7.71935C6.46058 7.64962 6.37787 7.5943 6.28682 7.55656C6.19577 7.51882 6.09818 7.49939 5.99961 7.49939C5.90105 7.49939 5.80346 7.51882 5.71241 7.55656C5.62136 7.5943 5.53864 7.64962 5.46899 7.71935L1.71899 11.4694C1.64926 11.539 1.59394 11.6217 1.55619 11.7128C1.51845 11.8038 1.49902 11.9014 1.49902 12C1.49902 12.0985 1.51845 12.1961 1.55619 12.2872C1.59394 12.3782 1.64926 12.461 1.71899 12.5306L5.46899 16.2806C5.53864 16.3503 5.62136 16.4057 5.71241 16.4434C5.80346 16.4811 5.90105 16.5006 5.99961 16.5006C6.09818 16.5006 6.19577 16.4811 6.28682 16.4434C6.37787 16.4057 6.46058 16.3503 6.53024 16.2806L10.2802 12.5306C10.35 12.461 10.4053 12.3782 10.443 12.2872C10.4808 12.1961 10.5002 12.0985 10.5002 12C10.5002 11.9014 10.4808 11.8038 10.443 11.7128C10.4053 11.6217 10.35 11.539 10.2802 11.4694ZM5.99961 14.6897L3.30993 12L5.99961 9.31029L8.6893 12L5.99961 14.6897Z" fill="#FAFAFA"/>
</svg>
