<svg width="20" height="20" viewBox="0 0 20 20" fill="none" xmlns="http://www.w3.org/2000/svg">
<g clip-path="url(#clip0_42_729)">
<path d="M10 20C15.5228 20 20 15.5228 20 10C20 4.47715 15.5228 0 10 0C4.47715 0 0 4.47715 0 10C0 15.5228 4.47715 20 10 20Z" fill="#3C5A9A"/>
<path d="M13.2512 3.06934H11.0359C9.7213 3.06934 8.2591 3.62224 8.2591 5.52781C8.26551 6.19178 8.2591 6.82767 8.2591 7.54333H6.73828V9.96339H8.30616V16.9304H11.1872V9.91742H13.0888L13.2609 7.53653H11.1376C11.1376 7.53653 11.1423 6.47742 11.1376 6.16985C11.1376 5.41681 11.9211 5.45993 11.9683 5.45993C12.3411 5.45993 13.0661 5.46102 13.2522 5.45993V3.06934H13.2512Z" fill="white"/>
</g>
<defs>
<clipPath id="clip0_42_729">
<rect width="20" height="20" fill="white"/>
</clipPath>
</defs>
</svg>
