<svg width="41" height="40" viewBox="0 0 41 40" fill="none" xmlns="http://www.w3.org/2000/svg">
<path opacity="0.2" d="M35.5 20C35.5 22.9667 34.6203 25.8668 32.972 28.3336C31.3238 30.8003 28.9811 32.7229 26.2403 33.8582C23.4994 34.9935 20.4834 35.2906 17.5737 34.7118C14.6639 34.133 11.9912 32.7044 9.8934 30.6066C7.79562 28.5088 6.36701 25.8361 5.78823 22.9264C5.20945 20.0166 5.5065 17.0006 6.64181 14.2597C7.77713 11.5189 9.69972 9.17618 12.1665 7.52796C14.6332 5.87973 17.5333 5 20.5 5C24.4783 5 28.2936 6.58035 31.1066 9.3934C33.9197 12.2064 35.5 16.0218 35.5 20Z" fill="#007660"/>
<path d="M27.6344 15.3656C27.7506 15.4817 27.8428 15.6196 27.9057 15.7713C27.9686 15.9231 28.001 16.0857 28.001 16.25C28.001 16.4143 27.9686 16.5769 27.9057 16.7287C27.8428 16.8804 27.7506 17.0183 27.6344 17.1344L18.8844 25.8844C18.7683 26.0006 18.6304 26.0928 18.4787 26.1557C18.3269 26.2186 18.1643 26.251 18 26.251C17.8357 26.251 17.6731 26.2186 17.5213 26.1557C17.3696 26.0928 17.2317 26.0006 17.1156 25.8844L13.3656 22.1344C13.1311 21.8998 12.9993 21.5817 12.9993 21.25C12.9993 20.9183 13.1311 20.6002 13.3656 20.3656C13.6002 20.1311 13.9183 19.9993 14.25 19.9993C14.5817 19.9993 14.8998 20.1311 15.1344 20.3656L18 23.2328L25.8656 15.3656C25.9817 15.2494 26.1196 15.1572 26.2713 15.0943C26.4231 15.0314 26.5857 14.999 26.75 14.999C26.9143 14.999 27.0769 15.0314 27.2287 15.0943C27.3804 15.1572 27.5183 15.2494 27.6344 15.3656ZM36.75 20C36.75 23.2139 35.797 26.3557 34.0114 29.028C32.2258 31.7003 29.6879 33.7831 26.7186 35.013C23.7493 36.243 20.482 36.5648 17.3298 35.9378C14.1776 35.3107 11.2821 33.7631 9.00952 31.4905C6.73692 29.2179 5.18926 26.3224 4.56225 23.1702C3.93524 20.018 4.25704 16.7507 5.48696 13.7814C6.71689 10.8121 8.79969 8.27419 11.472 6.48862C14.1443 4.70305 17.2861 3.75 20.5 3.75C24.8084 3.75455 28.939 5.46806 31.9855 8.51454C35.0319 11.561 36.7455 15.6916 36.75 20ZM34.25 20C34.25 17.2805 33.4436 14.6221 31.9327 12.3609C30.4218 10.0997 28.2744 8.33736 25.7619 7.29666C23.2494 6.25595 20.4848 5.98366 17.8175 6.5142C15.1503 7.04475 12.7003 8.35431 10.7773 10.2773C8.85432 12.2003 7.54476 14.6503 7.01421 17.3175C6.48366 19.9847 6.75596 22.7494 7.79666 25.2619C8.83737 27.7744 10.5997 29.9218 12.8609 31.4327C15.1221 32.9436 17.7805 33.75 20.5 33.75C24.1455 33.7459 27.6404 32.2959 30.2182 29.7182C32.7959 27.1404 34.2459 23.6455 34.25 20Z" fill="#007660"/>
</svg>
