<svg width="41" height="40" viewBox="0 0 41 40" fill="none" xmlns="http://www.w3.org/2000/svg">
<path opacity="0.2" d="M33 7.5V33.75C33 34.0815 32.8683 34.3995 32.6339 34.6339C32.3995 34.8683 32.0815 35 31.75 35H9.25C8.91848 35 8.60054 34.8683 8.36612 34.6339C8.1317 34.3995 8 34.0815 8 33.75V7.5C8 7.16848 8.1317 6.85054 8.36612 6.61612C8.60054 6.3817 8.91848 6.25 9.25 6.25H15.5C14.6869 7.33095 14.2481 8.64737 14.25 10V11.25H26.75V10C26.7519 8.64737 26.3131 7.33095 25.5 6.25H31.75C32.0815 6.25 32.3995 6.3817 32.6339 6.61612C32.8683 6.85054 33 7.16848 33 7.5Z" fill="#007660"/>
<path d="M31.75 5.00002H26.0844C25.382 4.21365 24.5215 3.58448 23.5592 3.1537C22.5968 2.72292 21.5544 2.50024 20.5 2.50024C19.4456 2.50024 18.4032 2.72292 17.4408 3.1537C16.4785 3.58448 15.618 4.21365 14.9156 5.00002H9.25C8.58696 5.00002 7.95107 5.26341 7.48223 5.73225C7.01339 6.20109 6.75 6.83698 6.75 7.50002V33.75C6.75 34.4131 7.01339 35.0489 7.48223 35.5178C7.95107 35.9866 8.58696 36.25 9.25 36.25H31.75C32.413 36.25 33.0489 35.9866 33.5178 35.5178C33.9866 35.0489 34.25 34.4131 34.25 33.75V7.50002C34.25 6.83698 33.9866 6.20109 33.5178 5.73225C33.0489 5.26341 32.413 5.00002 31.75 5.00002ZM20.5 5.00002C21.8261 5.00002 23.0979 5.5268 24.0355 6.46448C24.9732 7.40217 25.5 8.67393 25.5 10H15.5C15.5 8.67393 16.0268 7.40217 16.9645 6.46448C17.9021 5.5268 19.1739 5.00002 20.5 5.00002ZM31.75 33.75H9.25V7.50002H13.4297C13.1453 8.30286 13 9.14831 13 10V11.25C13 11.5815 13.1317 11.8995 13.3661 12.1339C13.6005 12.3683 13.9185 12.5 14.25 12.5H26.75C27.0815 12.5 27.3995 12.3683 27.6339 12.1339C27.8683 11.8995 28 11.5815 28 11.25V10C28 9.14831 27.8547 8.30286 27.5703 7.50002H31.75V33.75Z" fill="#007660"/>
</svg>
