<svg width="41" height="40" viewBox="0 0 41 40" fill="none" xmlns="http://www.w3.org/2000/svg">
<path opacity="0.2" d="M35.5 16.25V23.75C35.5 24.0815 35.3683 24.3995 35.1339 24.6339C34.8995 24.8683 34.5815 25 34.25 25H25.5V33.75C25.5 34.0815 25.3683 34.3995 25.1339 34.6339C24.8995 34.8683 24.5815 35 24.25 35H16.75C16.4185 35 16.1005 34.8683 15.8661 34.6339C15.6317 34.3995 15.5 34.0815 15.5 33.75V25H6.75C6.41848 25 6.10054 24.8683 5.86612 24.6339C5.6317 24.3995 5.5 24.0815 5.5 23.75V16.25C5.5 15.9185 5.6317 15.6005 5.86612 15.3661C6.10054 15.1317 6.41848 15 6.75 15H15.5V6.25C15.5 5.91848 15.6317 5.60054 15.8661 5.36612C16.1005 5.1317 16.4185 5 16.75 5H24.25C24.5815 5 24.8995 5.1317 25.1339 5.36612C25.3683 5.60054 25.5 5.91848 25.5 6.25V15H34.25C34.5815 15 34.8995 15.1317 35.1339 15.3661C35.3683 15.6005 35.5 15.9185 35.5 16.25Z" fill="#007660"/>
<path d="M34.25 13.75H26.75V6.25C26.75 5.58696 26.4866 4.95107 26.0178 4.48223C25.5489 4.01339 24.913 3.75 24.25 3.75H16.75C16.087 3.75 15.4511 4.01339 14.9822 4.48223C14.5134 4.95107 14.25 5.58696 14.25 6.25V13.75H6.75C6.08696 13.75 5.45107 14.0134 4.98223 14.4822C4.51339 14.9511 4.25 15.587 4.25 16.25V23.75C4.25 24.413 4.51339 25.0489 4.98223 25.5178C5.45107 25.9866 6.08696 26.25 6.75 26.25H14.25V33.75C14.25 34.413 14.5134 35.0489 14.9822 35.5178C15.4511 35.9866 16.087 36.25 16.75 36.25H24.25C24.913 36.25 25.5489 35.9866 26.0178 35.5178C26.4866 35.0489 26.75 34.413 26.75 33.75V26.25H34.25C34.913 26.25 35.5489 25.9866 36.0178 25.5178C36.4866 25.0489 36.75 24.413 36.75 23.75V16.25C36.75 15.587 36.4866 14.9511 36.0178 14.4822C35.5489 14.0134 34.913 13.75 34.25 13.75ZM34.25 23.75H25.5C25.1685 23.75 24.8505 23.8817 24.6161 24.1161C24.3817 24.3505 24.25 24.6685 24.25 25V33.75H16.75V25C16.75 24.6685 16.6183 24.3505 16.3839 24.1161C16.1495 23.8817 15.8315 23.75 15.5 23.75H6.75V16.25H15.5C15.8315 16.25 16.1495 16.1183 16.3839 15.8839C16.6183 15.6495 16.75 15.3315 16.75 15V6.25H24.25V15C24.25 15.3315 24.3817 15.6495 24.6161 15.8839C24.8505 16.1183 25.1685 16.25 25.5 16.25H34.25V23.75Z" fill="#007660"/>
</svg>
