<svg width="24" height="25" viewBox="0 0 24 25" fill="none" xmlns="http://www.w3.org/2000/svg">
<path d="M12 2.75C10.0716 2.75 8.18657 3.32183 6.58319 4.39317C4.97982 5.46451 3.73013 6.98726 2.99218 8.76884C2.25422 10.5504 2.06114 12.5108 2.43735 14.4021C2.81355 16.2934 3.74215 18.0307 5.10571 19.3943C6.46928 20.7579 8.20656 21.6865 10.0979 22.0627C11.9892 22.4389 13.9496 22.2458 15.7312 21.5078C17.5127 20.7699 19.0355 19.5202 20.1068 17.9168C21.1782 16.3134 21.75 14.4284 21.75 12.5C21.7473 9.91498 20.7192 7.43661 18.8913 5.60872C17.0634 3.78084 14.585 2.75273 12 2.75ZM12 20.75C10.3683 20.75 8.77326 20.2661 7.41655 19.3596C6.05984 18.4531 5.00242 17.1646 4.378 15.6571C3.75358 14.1496 3.5902 12.4908 3.90853 10.8905C4.22685 9.29016 5.01259 7.82015 6.16637 6.66637C7.32016 5.51259 8.79017 4.72685 10.3905 4.40852C11.9909 4.09019 13.6497 4.25357 15.1571 4.87799C16.6646 5.50242 17.9531 6.55984 18.8596 7.91655C19.7661 9.27325 20.25 10.8683 20.25 12.5C20.2475 14.6873 19.3775 16.7843 17.8309 18.3309C16.2843 19.8775 14.1873 20.7475 12 20.75ZM16.2806 11.9694C16.3504 12.039 16.4057 12.1217 16.4434 12.2128C16.4812 12.3038 16.5006 12.4014 16.5006 12.5C16.5006 12.5986 16.4812 12.6962 16.4434 12.7872C16.4057 12.8783 16.3504 12.961 16.2806 13.0306L13.2806 16.0306C13.1399 16.1714 12.949 16.2504 12.75 16.2504C12.551 16.2504 12.3601 16.1714 12.2194 16.0306C12.0786 15.8899 11.9996 15.699 11.9996 15.5C11.9996 15.301 12.0786 15.1101 12.2194 14.9694L13.9397 13.25H8.25C8.05109 13.25 7.86033 13.171 7.71967 13.0303C7.57902 12.8897 7.5 12.6989 7.5 12.5C7.5 12.3011 7.57902 12.1103 7.71967 11.9697C7.86033 11.829 8.05109 11.75 8.25 11.75H13.9397L12.2194 10.0306C12.0786 9.88989 11.9996 9.69902 11.9996 9.5C11.9996 9.30098 12.0786 9.11011 12.2194 8.96937C12.3601 8.82864 12.551 8.74958 12.75 8.74958C12.949 8.74958 13.1399 8.82864 13.2806 8.96937L16.2806 11.9694Z" fill="#007660"/>
</svg>
