<svg width="24" height="29" viewBox="0 0 24 29" fill="none" xmlns="http://www.w3.org/2000/svg">
<path opacity="0.2" d="M21 14.5C21 16.28 20.4722 18.0201 19.4832 19.5001C18.4943 20.9802 17.0887 22.1337 15.4442 22.8149C13.7996 23.4961 11.99 23.6743 10.2442 23.3271C8.49836 22.9798 6.89472 22.1226 5.63604 20.864C4.37737 19.6053 3.5202 18.0016 3.17294 16.2558C2.82567 14.51 3.0039 12.7004 3.68509 11.0558C4.36628 9.41131 5.51983 8.00571 6.99987 7.01677C8.47992 6.02784 10.22 5.5 12 5.5C14.387 5.5 16.6761 6.44821 18.364 8.13604C20.0518 9.82387 21 12.1131 21 14.5Z" fill="#007660"/>
<path d="M16.2806 11.7194C16.3504 11.789 16.4057 11.8717 16.4434 11.9628C16.4812 12.0538 16.5006 12.1514 16.5006 12.25C16.5006 12.3486 16.4812 12.4462 16.4434 12.5372C16.4057 12.6283 16.3504 12.711 16.2806 12.7806L11.0306 18.0306C10.961 18.1004 10.8783 18.1557 10.7872 18.1934C10.6962 18.2312 10.5986 18.2506 10.5 18.2506C10.4014 18.2506 10.3038 18.2312 10.2128 18.1934C10.1218 18.1557 10.039 18.1004 9.96938 18.0306L7.71938 15.7806C7.57865 15.6399 7.49959 15.449 7.49959 15.25C7.49959 15.051 7.57865 14.8601 7.71938 14.7194C7.86011 14.5786 8.05098 14.4996 8.25 14.4996C8.44903 14.4996 8.6399 14.5786 8.78063 14.7194L10.5 16.4397L15.2194 11.7194C15.289 11.6496 15.3718 11.5943 15.4628 11.5566C15.5538 11.5188 15.6514 11.4994 15.75 11.4994C15.8486 11.4994 15.9462 11.5188 16.0372 11.5566C16.1283 11.5943 16.211 11.6496 16.2806 11.7194ZM21.75 14.5C21.75 16.4284 21.1782 18.3134 20.1068 19.9168C19.0355 21.5202 17.5127 22.7699 15.7312 23.5078C13.9496 24.2458 11.9892 24.4389 10.0979 24.0627C8.20656 23.6865 6.46928 22.7579 5.10571 21.3943C3.74215 20.0307 2.81355 18.2934 2.43735 16.4021C2.06114 14.5108 2.25422 12.5504 2.99218 10.7688C3.73013 8.98726 4.97982 7.46452 6.58319 6.39317C8.18657 5.32183 10.0716 4.75 12 4.75C14.585 4.75273 17.0634 5.78084 18.8913 7.60872C20.7192 9.43661 21.7473 11.915 21.75 14.5ZM20.25 14.5C20.25 12.8683 19.7662 11.2733 18.8596 9.91655C17.9531 8.55984 16.6646 7.50242 15.1571 6.87799C13.6497 6.25357 11.9909 6.09019 10.3905 6.40852C8.79017 6.72685 7.32016 7.51259 6.16637 8.66637C5.01259 9.82015 4.22685 11.2902 3.90853 12.8905C3.5902 14.4908 3.75358 16.1496 4.378 17.6571C5.00242 19.1646 6.05984 20.4531 7.41655 21.3596C8.77326 22.2661 10.3683 22.75 12 22.75C14.1873 22.7475 16.2843 21.8775 17.8309 20.3309C19.3775 18.7843 20.2475 16.6873 20.25 14.5Z" fill="#007660"/>
</svg>
