<svg width="20" height="20" viewBox="0 0 20 20" fill="none" xmlns="http://www.w3.org/2000/svg">
<g clip-path="url(#clip0_42_763)">
<g clip-path="url(#clip1_42_763)">
<path d="M19.5395 8.32764C19.6271 8.32764 19.6981 8.39862 19.6981 8.48619V10.1508C19.6981 10.7738 19.6402 11.383 19.5292 11.9739C18.6706 16.5641 14.6267 20.033 9.77958 19.9996C4.34072 19.9621 -0.0120171 15.5675 2.49256e-05 10.1286C0.01199 4.69943 4.41705 0.301758 9.84902 0.301758C12.5103 0.301758 14.9249 1.35753 16.6977 3.07249C16.7617 3.13439 16.7634 3.23642 16.7004 3.29936L14.3454 5.65432C14.2848 5.71496 14.1869 5.71653 14.1247 5.6574C13.0121 4.59828 11.5066 3.94805 9.84902 3.94805C6.42606 3.94805 3.66967 6.68485 3.64644 10.1077C3.62308 13.5531 6.40913 16.3535 9.84902 16.3535C12.64 16.3535 15.0006 14.5097 15.7791 11.9739H10.0076C9.92 11.9739 9.84902 11.903 9.84902 11.8154V8.48615C9.84902 8.39859 9.92 8.3276 10.0076 8.3276H19.5395V8.32764Z" fill="#2196F3"/>
<path d="M19.5395 8.32764H18.3505C18.4381 8.32764 18.5091 8.39862 18.5091 8.48618V10.1508C18.5091 10.7738 18.4512 11.383 18.3402 11.9739C17.5211 16.353 13.8029 19.7115 9.25391 19.982C9.42796 19.9923 9.60316 19.9983 9.7796 19.9995C14.6268 20.033 18.6706 16.564 19.5292 11.9739C19.6402 11.383 19.6981 10.7738 19.6981 10.1508V8.48614C19.6981 8.39862 19.6271 8.32764 19.5395 8.32764Z" fill="#1E88E5"/>
<path d="M4.21579 7.55319L1.22461 5.39194C2.90272 2.35678 6.13643 0.301758 9.84975 0.301758C12.511 0.301758 14.9257 1.35753 16.6984 3.07249C16.7625 3.13439 16.7641 3.23642 16.7011 3.29937L14.3462 5.65432C14.2857 5.71484 14.1877 5.71673 14.1257 5.65771C13.0131 4.5984 11.5075 3.94809 9.84975 3.94809C7.35163 3.94809 5.19831 5.42483 4.21579 7.55319Z" fill="#F44336"/>
<path d="M3.35156 6.92943L4.21508 7.55334C5.11188 5.61069 6.98428 4.21159 9.20377 3.9821C9.22047 3.98029 9.23651 3.9781 9.25352 3.97648C9.05819 3.95794 8.86025 3.94824 8.66004 3.94824C6.40334 3.94824 4.43661 5.13794 3.35156 6.92943Z" fill="#E53935"/>
<path d="M15.5082 3.07249C15.5722 3.13439 15.5739 3.23642 15.5109 3.2994L13.5994 5.21085C13.7826 5.35012 13.9579 5.49908 14.1242 5.65744C14.1863 5.71657 14.2843 5.71499 14.3449 5.65436L16.6999 3.2994C16.7629 3.23642 16.7612 3.13443 16.6972 3.07249C14.9244 1.35753 12.5098 0.301758 9.8485 0.301758C9.64879 0.301758 9.45066 0.308414 9.25391 0.320148C11.6792 0.464613 13.8684 1.48618 15.5082 3.07249Z" fill="#E53935"/>
<path d="M17.073 16.8441C15.2744 18.7849 12.703 19.9997 9.84815 19.9997C5.99217 19.9997 2.65381 17.7838 1.03711 14.5556L4.09089 12.4629C5.00727 14.7431 7.23985 16.3534 9.84815 16.3534C11.485 16.3534 12.9737 15.7192 14.0818 14.6832L17.073 16.8441Z" fill="#4CAF50"/>
<path d="M4.0919 12.4629L3.19141 13.08C4.23729 15.0284 6.29401 16.3533 8.66012 16.3533C8.86022 16.3533 9.05801 16.3435 9.25325 16.325C6.90453 16.1011 4.93761 14.5673 4.0919 12.4629Z" fill="#43A047"/>
<path d="M9.84888 19.9999C12.7037 19.9999 15.2752 18.7851 17.0738 16.8442L16.3411 16.3149C14.6523 18.4167 12.1189 19.811 9.25586 19.9819C9.45207 19.9936 9.64974 19.9999 9.84888 19.9999Z" fill="#43A047"/>
<path d="M3.64634 10.1509C3.64634 10.9682 3.80446 11.7486 4.09181 12.4632L1.038 14.5558C0.373763 13.2305 0 11.7343 0 10.1509C0 8.4249 0.443899 6.80266 1.2239 5.39209L4.21508 7.55334C3.85005 8.34322 3.64634 9.22352 3.64634 10.1509Z" fill="#FFC107"/>
<path d="M3.19105 13.08L4.09154 12.463C3.80419 11.7484 3.64606 10.968 3.64606 10.1507C3.64606 9.2233 3.84978 8.343 4.21481 7.55311L3.35129 6.9292C2.79054 7.85505 2.4651 8.94148 2.45718 10.1077C2.44987 11.1832 2.71637 12.1958 3.19105 13.08Z" fill="#FFB300"/>
</g>
</g>
<defs>
<clipPath id="clip0_42_763">
<rect width="20" height="20" fill="white"/>
</clipPath>
<clipPath id="clip1_42_763">
<rect width="20" height="20" fill="white" transform="translate(0 0.301758)"/>
</clipPath>
</defs>
</svg>
