<svg width="117" height="32" viewBox="0 0 117 32" fill="none" xmlns="http://www.w3.org/2000/svg">
<g clip-path="url(#clip0_51_1369)">
<path d="M45.9375 0.999997C45.9375 1.55229 46.3945 2 46.9583 2H47.9792C48.543 2 49 1.55229 49 0.999997C49 0.447716 48.543 0 47.9792 0H46.9583C46.3945 0 45.9375 0.447716 45.9375 0.999997Z" fill="white"/>
<path d="M16.3333 32H21.2924L19.8487 30.5858C19.4658 30.2107 18.9465 30 18.4051 30H16.3333C8.44025 30 2.04167 23.732 2.04167 16C2.04167 8.268 8.44025 2.00001 16.3333 2H32.6667C40.5597 2 46.9583 8.268 46.9583 16C46.9583 23.732 40.5597 30 32.6667 30H26.5567C25.7444 30 24.9655 29.6839 24.3911 29.1214L22.6998 27.4645C21.7426 26.5268 20.4443 26 19.0906 26H16.3333C10.6954 26 6.125 21.5229 6.125 16C6.125 10.4771 10.6954 6 16.3333 6H32.6667C38.3046 6 42.875 10.4771 42.875 16C42.875 21.5229 38.3046 26 32.6667 26H28.7435C27.9312 26 27.1523 25.6839 26.5779 25.1214L24.8865 23.4645C23.9293 22.5268 22.6311 22 21.2774 22H16.3333C12.9506 22 10.2083 19.3137 10.2083 16C10.2083 12.6863 12.9506 10 16.3333 10H32.6667C36.0494 10 38.7917 12.6863 38.7917 16C38.7917 19.2733 36.1159 21.9344 32.7901 21.9988L32.7895 22H31.2956C30.4833 22 29.7044 21.6839 29.13 21.1214L27.4386 19.4645C26.6532 18.695 25.6382 18.2023 24.5513 18.0502L24.5 18H16.3333C15.2058 18 14.2917 17.1046 14.2917 16C14.2917 14.8954 15.2058 14 16.3333 14H32.6667C33.7942 14 34.7083 14.8954 34.7083 16C34.7083 17.1046 33.7942 18 32.6667 18H28.5833L30.027 19.4142C30.4099 19.7893 30.9292 20 31.4707 20H32.6667C34.9218 20 36.75 18.2091 36.75 16C36.75 13.7909 34.9218 12 32.6667 12H16.3333C14.0782 12 12.25 13.7909 12.25 16C12.25 18.2091 14.0782 20 16.3333 20H23.8294C24.6417 20 25.4206 20.3161 25.995 20.8786L27.6864 22.5355C28.6436 23.4732 29.9419 24 31.2956 24H33.1771V23.9846C37.4496 23.7266 40.8333 20.2503 40.8333 16C40.8333 11.5818 37.177 8 32.6667 8H16.3333C11.823 8 8.16667 11.5818 8.16667 16C8.16667 20.4183 11.823 24 16.3333 24H21.2774C22.0896 24 22.8685 24.3161 23.4429 24.8786L25.1343 26.5355C26.0915 27.4732 27.3898 28 28.7435 28H32.6667C39.4322 28 44.9167 22.6274 44.9167 16C44.9167 9.37256 39.4322 4 32.6667 4H16.3333C9.56782 4 4.08333 9.37256 4.08333 16C4.08333 22.6274 9.56782 28 16.3333 28H19.0906C19.9028 28 20.6818 28.3161 21.2561 28.8786L22.9475 30.5355C23.9047 31.4732 25.203 32 26.5567 32H32.6667C41.6873 32 49 24.8366 49 16C49 7.16344 41.6873 -7.72516e-07 32.6667 0L16.3333 3.30611e-06C7.31268 4.07863e-06 -7.8861e-07 7.16345 0 16C7.8861e-07 24.8366 7.31269 32 16.3333 32Z" fill="white"/>
</g>
<path d="M58.4382 23V9.90909H60.4134V15.598H66.9396V9.90909H68.9212V23H66.9396V17.2919H60.4134V23H58.4382ZM75.8757 23.1982C74.9084 23.1982 74.0753 22.9915 73.3764 22.5781C72.6818 22.1605 72.1449 21.5746 71.7656 20.8203C71.3906 20.0618 71.2031 19.1733 71.2031 18.1548C71.2031 17.1491 71.3906 16.2628 71.7656 15.4957C72.1449 14.7287 72.6733 14.13 73.3509 13.6996C74.0327 13.2692 74.8295 13.054 75.7415 13.054C76.2955 13.054 76.8324 13.1456 77.3523 13.3288C77.8722 13.5121 78.3388 13.7997 78.7521 14.1918C79.1655 14.5838 79.4915 15.093 79.7301 15.7195C79.9688 16.3416 80.0881 17.098 80.0881 17.9886V18.6662H72.2834V17.2344H78.2152C78.2152 16.7315 78.1129 16.2862 77.9084 15.8984C77.7038 15.5064 77.4162 15.1974 77.0455 14.9716C76.679 14.7457 76.2486 14.6328 75.7543 14.6328C75.2173 14.6328 74.7486 14.7649 74.348 15.0291C73.9517 15.2891 73.6449 15.63 73.4276 16.0518C73.2145 16.4695 73.108 16.9233 73.108 17.4134V18.532C73.108 19.1882 73.223 19.7464 73.4531 20.2067C73.6875 20.6669 74.0135 21.0185 74.4311 21.2614C74.8487 21.5 75.3366 21.6193 75.8949 21.6193C76.2571 21.6193 76.5874 21.5682 76.8857 21.4659C77.1839 21.3594 77.4418 21.2017 77.6591 20.9929C77.8764 20.7841 78.0426 20.5263 78.1577 20.2195L79.9666 20.5455C79.8217 21.0781 79.5618 21.5447 79.1868 21.9453C78.8161 22.3416 78.3494 22.6506 77.7869 22.8722C77.2287 23.0895 76.5916 23.1982 75.8757 23.1982ZM85.0659 23.2173C84.4437 23.2173 83.8812 23.1023 83.3784 22.8722C82.8755 22.6378 82.4771 22.299 82.1831 21.8558C81.8933 21.4126 81.7484 20.8693 81.7484 20.2259C81.7484 19.6719 81.8549 19.2159 82.068 18.858C82.2811 18.5 82.5687 18.2166 82.9309 18.0078C83.2931 17.799 83.698 17.6413 84.1454 17.5348C84.5929 17.4283 85.0488 17.3473 85.5133 17.2919C86.1014 17.2237 86.5787 17.1683 86.9451 17.1257C87.3116 17.0788 87.5779 17.0043 87.7441 16.902C87.9103 16.7997 87.9934 16.6335 87.9934 16.4034V16.3587C87.9934 15.8004 87.8358 15.3679 87.5204 15.0611C87.2093 14.7543 86.7449 14.6009 86.127 14.6009C85.4835 14.6009 84.9764 14.7436 84.6056 15.0291C84.2392 15.3104 83.9856 15.6236 83.845 15.9688L82.0488 15.5597C82.2619 14.9631 82.573 14.4815 82.9821 14.1151C83.3954 13.7443 83.8706 13.4759 84.4075 13.3097C84.9444 13.1392 85.5091 13.054 86.1014 13.054C86.4934 13.054 86.9089 13.1009 87.3478 13.1946C87.791 13.2841 88.2044 13.4503 88.5879 13.6932C88.9757 13.9361 89.2931 14.2834 89.5403 14.7351C89.7875 15.1825 89.911 15.7642 89.911 16.4801V23H88.0446V21.6577H87.9679C87.8443 21.9048 87.6589 22.1477 87.4118 22.3864C87.1646 22.625 86.8471 22.8232 86.4593 22.9808C86.0716 23.1385 85.6071 23.2173 85.0659 23.2173ZM85.4814 21.6832C86.0098 21.6832 86.4615 21.5788 86.8365 21.37C87.2157 21.1612 87.5034 20.8885 87.6994 20.5518C87.8997 20.2109 87.9998 19.8466 87.9998 19.4588V18.1932C87.9316 18.2614 87.7995 18.3253 87.6035 18.3849C87.4118 18.4403 87.1923 18.4893 86.9451 18.532C86.698 18.5703 86.4572 18.6065 86.2228 18.6406C85.9885 18.6705 85.7924 18.696 85.6348 18.7173C85.264 18.7642 84.9252 18.843 84.6184 18.9538C84.3159 19.0646 84.073 19.2244 83.8897 19.4332C83.7108 19.6378 83.6213 19.9105 83.6213 20.2514C83.6213 20.7244 83.796 21.0824 84.1454 21.3253C84.4949 21.5639 84.9402 21.6832 85.4814 21.6832ZM94.3679 9.90909V23H92.4567V9.90909H94.3679ZM96.9391 23V13.1818H98.8503V23H96.9391ZM97.9043 11.6669C97.5719 11.6669 97.2864 11.5561 97.0478 11.3345C96.8134 11.1087 96.6962 10.8402 96.6962 10.5291C96.6962 10.2138 96.8134 9.94531 97.0478 9.72372C97.2864 9.49787 97.5719 9.38494 97.9043 9.38494C98.2367 9.38494 98.5201 9.49787 98.7544 9.72372C98.9931 9.94531 99.1124 10.2138 99.1124 10.5291C99.1124 10.8402 98.9931 11.1087 98.7544 11.3345C98.5201 11.5561 98.2367 11.6669 97.9043 11.6669ZM106.094 13.1818V14.7159H100.546V13.1818H106.094ZM102.067 23V12.044C102.067 11.4304 102.201 10.9212 102.47 10.5163C102.738 10.1072 103.094 9.80256 103.537 9.60227C103.98 9.39773 104.462 9.29545 104.982 9.29545C105.365 9.29545 105.694 9.32741 105.966 9.39134C106.239 9.45099 106.441 9.50639 106.574 9.55753L106.126 11.1044C106.037 11.0788 105.922 11.049 105.781 11.0149C105.64 10.9766 105.47 10.9574 105.27 10.9574C104.805 10.9574 104.473 11.0724 104.272 11.3026C104.076 11.5327 103.978 11.8651 103.978 12.2997V23H102.067ZM109.274 26.6818C108.989 26.6818 108.729 26.6584 108.494 26.6115C108.26 26.5689 108.085 26.522 107.97 26.4709L108.43 24.9048C108.78 24.9986 109.091 25.0391 109.364 25.0263C109.636 25.0135 109.877 24.9112 110.086 24.7195C110.299 24.5277 110.487 24.2145 110.648 23.7798L110.885 23.1278L107.293 13.1818H109.338L111.825 20.8011H111.927L114.413 13.1818H116.465L112.419 24.3104C112.232 24.8217 111.993 25.2543 111.703 25.608C111.413 25.9659 111.068 26.2344 110.668 26.4134C110.267 26.5923 109.803 26.6818 109.274 26.6818Z" fill="white"/>
<defs>
<clipPath id="clip0_51_1369">
<rect width="49" height="32" fill="white"/>
</clipPath>
</defs>
</svg>
