<svg width="40" height="40" viewBox="0 0 40 40" fill="none" xmlns="http://www.w3.org/2000/svg">
<path opacity="0.2" d="M33.75 7.5V12.5C33.75 12.8315 33.6183 13.1495 33.3839 13.3839C33.1495 13.6183 32.8315 13.75 32.5 13.75H27.5C27.1685 13.75 26.8505 13.6183 26.6161 13.3839C26.3817 13.1495 26.25 12.8315 26.25 12.5V7.5C26.25 7.16848 26.3817 6.85054 26.6161 6.61612C26.8505 6.3817 27.1685 6.25 27.5 6.25H32.5C32.8315 6.25 33.1495 6.3817 33.3839 6.61612C33.6183 6.85054 33.75 7.16848 33.75 7.5ZM12.5 6.25H7.5C7.16848 6.25 6.85054 6.3817 6.61612 6.61612C6.3817 6.85054 6.25 7.16848 6.25 7.5V12.5C6.25 12.8315 6.3817 13.1495 6.61612 13.3839C6.85054 13.6183 7.16848 13.75 7.5 13.75H12.5C12.8315 13.75 13.1495 13.6183 13.3839 13.3839C13.6183 13.1495 13.75 12.8315 13.75 12.5V7.5C13.75 7.16848 13.6183 6.85054 13.3839 6.61612C13.1495 6.3817 12.8315 6.25 12.5 6.25ZM32.5 26.25H27.5C27.1685 26.25 26.8505 26.3817 26.6161 26.6161C26.3817 26.8505 26.25 27.1685 26.25 27.5V32.5C26.25 32.8315 26.3817 33.1495 26.6161 33.3839C26.8505 33.6183 27.1685 33.75 27.5 33.75H32.5C32.8315 33.75 33.1495 33.6183 33.3839 33.3839C33.6183 33.1495 33.75 32.8315 33.75 32.5V27.5C33.75 27.1685 33.6183 26.8505 33.3839 26.6161C33.1495 26.3817 32.8315 26.25 32.5 26.25ZM12.5 26.25H7.5C7.16848 26.25 6.85054 26.3817 6.61612 26.6161C6.3817 26.8505 6.25 27.1685 6.25 27.5V32.5C6.25 32.8315 6.3817 33.1495 6.61612 33.3839C6.85054 33.6183 7.16848 33.75 7.5 33.75H12.5C12.8315 33.75 13.1495 33.6183 13.3839 33.3839C13.6183 33.1495 13.75 32.8315 13.75 32.5V27.5C13.75 27.1685 13.6183 26.8505 13.3839 26.6161C13.1495 26.3817 12.8315 26.25 12.5 26.25Z" fill="#007660"/>
<path d="M32.5 15C33.163 15 33.7989 14.7366 34.2678 14.2678C34.7366 13.7989 35 13.163 35 12.5V7.5C35 6.83696 34.7366 6.20107 34.2678 5.73223C33.7989 5.26339 33.163 5 32.5 5H27.5C26.837 5 26.2011 5.26339 25.7322 5.73223C25.2634 6.20107 25 6.83696 25 7.5V8.75H15V7.5C15 6.83696 14.7366 6.20107 14.2678 5.73223C13.7989 5.26339 13.163 5 12.5 5H7.5C6.83696 5 6.20107 5.26339 5.73223 5.73223C5.26339 6.20107 5 6.83696 5 7.5V12.5C5 13.163 5.26339 13.7989 5.73223 14.2678C6.20107 14.7366 6.83696 15 7.5 15H8.75V25H7.5C6.83696 25 6.20107 25.2634 5.73223 25.7322C5.26339 26.2011 5 26.837 5 27.5V32.5C5 33.163 5.26339 33.7989 5.73223 34.2678C6.20107 34.7366 6.83696 35 7.5 35H12.5C13.163 35 13.7989 34.7366 14.2678 34.2678C14.7366 33.7989 15 33.163 15 32.5V31.25H25V32.5C25 33.163 25.2634 33.7989 25.7322 34.2678C26.2011 34.7366 26.837 35 27.5 35H32.5C33.163 35 33.7989 34.7366 34.2678 34.2678C34.7366 33.7989 35 33.163 35 32.5V27.5C35 26.837 34.7366 26.2011 34.2678 25.7322C33.7989 25.2634 33.163 25 32.5 25H31.25V15H32.5ZM27.5 7.5H32.5V12.5H27.5V7.5ZM7.5 7.5H12.5V9.98438C12.4979 9.99469 12.4979 10.0053 12.5 10.0156V12.5H7.5V7.5ZM12.5 32.5H7.5V27.5H12.5V29.9844C12.4979 29.9947 12.4979 30.0053 12.5 30.0156V32.5ZM32.5 32.5H27.5V27.5H32.5V32.5ZM28.75 25H27.5C26.837 25 26.2011 25.2634 25.7322 25.7322C25.2634 26.2011 25 26.837 25 27.5V28.75H15V27.5C15 26.837 14.7366 26.2011 14.2678 25.7322C13.7989 25.2634 13.163 25 12.5 25H11.25V15H12.5C13.163 15 13.7989 14.7366 14.2678 14.2678C14.7366 13.7989 15 13.163 15 12.5V11.25H25V12.5C25 13.163 25.2634 13.7989 25.7322 14.2678C26.2011 14.7366 26.837 15 27.5 15H28.75V25Z" fill="#007660"/>
</svg>
