<svg width="24" height="24" viewBox="0 0 24 24" fill="none" xmlns="http://www.w3.org/2000/svg">
<g opacity="0.64">
<path d="M21.75 12C21.747 14.3829 20.8727 16.6825 19.2918 18.4656C17.7109 20.2486 15.5326 21.3921 13.1672 21.6806C13.1145 21.6866 13.0612 21.6813 13.0107 21.6651C12.9602 21.649 12.9137 21.6223 12.8743 21.5869C12.8349 21.5514 12.8034 21.508 12.782 21.4596C12.7606 21.4111 12.7497 21.3586 12.75 21.3056V14.25H15C15.1028 14.2502 15.2046 14.2293 15.299 14.1885C15.3934 14.1478 15.4784 14.088 15.5487 14.013C15.6191 13.938 15.6732 13.8494 15.7078 13.7526C15.7425 13.6558 15.7568 13.5529 15.75 13.4503C15.7335 13.2574 15.6445 13.078 15.501 12.9481C15.3575 12.8181 15.1701 12.7474 14.9766 12.75H12.75V10.5C12.75 10.1022 12.9081 9.72062 13.1894 9.43932C13.4707 9.15801 13.8522 8.99998 14.25 8.99998H15.75C15.8528 9.0002 15.9546 8.97929 16.049 8.93853C16.1434 8.89777 16.2284 8.83804 16.2987 8.76304C16.3691 8.68805 16.4232 8.59939 16.4578 8.50258C16.4925 8.40577 16.5068 8.30288 16.5 8.20029C16.4834 8.0071 16.3942 7.82739 16.2503 7.69742C16.1064 7.56745 15.9186 7.49689 15.7247 7.49998H14.25C13.4544 7.49998 12.6913 7.81605 12.1287 8.37866C11.5661 8.94127 11.25 9.70433 11.25 10.5V12.75H9.00002C8.8972 12.7498 8.79544 12.7707 8.70105 12.8114C8.60666 12.8522 8.52165 12.9119 8.45132 12.9869C8.38098 13.0619 8.32682 13.1506 8.29219 13.2474C8.25756 13.3442 8.24321 13.4471 8.25002 13.5497C8.26661 13.7429 8.35585 13.9226 8.49974 14.0525C8.64363 14.1825 8.83146 14.2531 9.02533 14.25H11.25V21.3075C11.2503 21.3604 11.2395 21.4128 11.2181 21.4612C11.1967 21.5096 11.1653 21.5529 11.126 21.5884C11.0867 21.6238 11.0403 21.6505 10.99 21.6667C10.9396 21.6829 10.8864 21.6883 10.8338 21.6825C8.40504 21.3867 6.17586 20.1899 4.58746 18.3289C2.99907 16.4679 2.16722 14.0785 2.25658 11.6334C2.44408 6.57091 6.54471 2.45529 11.611 2.25841C12.9226 2.20761 14.231 2.42187 15.458 2.88838C16.6849 3.35489 17.8051 4.06407 18.7517 4.9735C19.6982 5.88293 20.4516 6.97393 20.9668 8.18123C21.482 9.38854 21.7484 10.6873 21.75 12Z" fill="#171717"/>
</g>
</svg>
