<svg width="24" height="24" viewBox="0 0 24 24" fill="none" xmlns="http://www.w3.org/2000/svg">
<g opacity="0.64">
<path d="M23.0306 7.28068L20.2275 10.0838C19.6612 16.6482 14.1253 21.7501 7.49999 21.7501C6.13874 21.7501 5.01655 21.5344 4.16436 21.1088C3.47717 20.7647 3.19592 20.3963 3.12561 20.2913C3.06291 20.1973 3.02228 20.0903 3.00674 19.9784C2.99119 19.8664 3.00115 19.7524 3.03586 19.6449C3.07056 19.5373 3.12913 19.439 3.20717 19.3573C3.28521 19.2756 3.38072 19.2125 3.48655 19.1729C3.51092 19.1635 5.75905 18.3001 7.18686 16.6566C6.39503 16.0056 5.70381 15.2411 5.13561 14.3879C3.97311 12.6619 2.67186 9.66381 3.07311 5.1835C3.08583 5.04113 3.13896 4.90537 3.22625 4.79219C3.31354 4.67901 3.43136 4.59313 3.56582 4.54467C3.70028 4.4962 3.8458 4.48717 3.98522 4.51863C4.12465 4.55009 4.25218 4.62073 4.3528 4.72225C4.38561 4.75506 7.4728 7.82537 11.2472 8.821V8.25006C11.2457 7.65137 11.3641 7.05844 11.5953 6.50619C11.8265 5.95394 12.1659 5.45353 12.5934 5.03443C13.0086 4.6198 13.5027 4.29253 14.0464 4.07194C14.5902 3.85135 15.1726 3.7419 15.7594 3.75006C16.5464 3.75782 17.3181 3.96911 17.9994 4.36338C18.6807 4.75764 19.2483 5.32148 19.6472 6.00006H22.5C22.6484 5.99994 22.7935 6.04386 22.917 6.12627C23.0404 6.20867 23.1366 6.32585 23.1935 6.46297C23.2503 6.60008 23.2651 6.75097 23.2361 6.89654C23.2071 7.0421 23.1356 7.17579 23.0306 7.28068Z" fill="#171717"/>
</g>
</svg>
