<svg width="33" height="32" viewBox="0 0 33 32" fill="none" xmlns="http://www.w3.org/2000/svg">
<path opacity="0.2" d="M29.666 15V24C29.666 24.2652 29.5607 24.5196 29.3731 24.7071C29.1856 24.8946 28.9312 25 28.666 25H4.66602C4.4008 25 4.14645 24.8946 3.95891 24.7071C3.77137 24.5196 3.66602 24.2652 3.66602 24V15H29.666Z" fill="#171717"/>
<path d="M28.666 8H22.666V7C22.666 6.20435 22.3499 5.44129 21.7873 4.87868C21.2247 4.31607 20.4617 4 19.666 4H13.666C12.8704 4 12.1073 4.31607 11.5447 4.87868C10.9821 5.44129 10.666 6.20435 10.666 7V8H4.66602C4.13558 8 3.62687 8.21071 3.2518 8.58579C2.87673 8.96086 2.66602 9.46957 2.66602 10V24C2.66602 24.5304 2.87673 25.0391 3.2518 25.4142C3.62687 25.7893 4.13558 26 4.66602 26H28.666C29.1964 26 29.7052 25.7893 30.0802 25.4142C30.4553 25.0391 30.666 24.5304 30.666 24V10C30.666 9.46957 30.4553 8.96086 30.0802 8.58579C29.7052 8.21071 29.1964 8 28.666 8ZM12.666 7C12.666 6.73478 12.7714 6.48043 12.9589 6.29289C13.1464 6.10536 13.4008 6 13.666 6H19.666C19.9312 6 20.1856 6.10536 20.3731 6.29289C20.5607 6.48043 20.666 6.73478 20.666 7V8H12.666V7ZM4.66602 10H28.666V14H24.666V13C24.666 12.7348 24.5607 12.4804 24.3731 12.2929C24.1856 12.1054 23.9312 12 23.666 12C23.4008 12 23.1464 12.1054 22.9589 12.2929C22.7714 12.4804 22.666 12.7348 22.666 13V14H10.666V13C10.666 12.7348 10.5607 12.4804 10.3731 12.2929C10.1856 12.1054 9.93123 12 9.66602 12C9.4008 12 9.14645 12.1054 8.95891 12.2929C8.77137 12.4804 8.66602 12.7348 8.66602 13V14H4.66602V10ZM28.666 24H4.66602V16H8.66602V17C8.66602 17.2652 8.77137 17.5196 8.95891 17.7071C9.14645 17.8946 9.4008 18 9.66602 18C9.93123 18 10.1856 17.8946 10.3731 17.7071C10.5607 17.5196 10.666 17.2652 10.666 17V16H22.666V17C22.666 17.2652 22.7714 17.5196 22.9589 17.7071C23.1464 17.8946 23.4008 18 23.666 18C23.9312 18 24.1856 17.8946 24.3731 17.7071C24.5607 17.5196 24.666 17.2652 24.666 17V16H28.666V24Z" fill="#171717"/>
</svg>
